<?xml version="1.0" standalone="no"?><!DOCTYPE svg PUBLIC "-//W3C//DTD SVG 1.1//EN" "http://www.w3.org/Graphics/SVG/1.1/DTD/svg11.dtd"><svg t="1711961455946" class="icon" viewBox="0 0 1024 1024" version="1.1" xmlns="http://www.w3.org/2000/svg" p-id="7131" xmlns:xlink="http://www.w3.org/1999/xlink" width="200" height="200"><path d="M561.160653 181.634804v2.703575-2.703575zM283.556101 472.127897c0 21.553898 17.472953 39.026852 39.026852 39.026852s39.026852-17.472953 39.026852-39.026852-17.472953-39.026852-39.026852-39.026852-39.026852 17.472953-39.026852 39.026852zM470.938815 472.127897c0 21.553898 17.472953 39.026852 39.026852 39.026852s39.026852-17.472953 39.026852-39.026852-17.472953-39.026852-39.026852-39.026852-39.026852 17.472953-39.026852 39.026852zM658.32153 472.127897c0 21.553898 17.472953 39.026852 39.026852 39.026852s39.026852-17.472953 39.026852-39.026852-17.472953-39.026852-39.026852-39.026852-39.026852 17.472953-39.026852 39.026852z" fill="" p-id="7132"></path><path d="M510.145769 958.747857a26.968212 26.968212 0 0 1-18.927071-7.751544l-99.415221-97.702206c-43.263339-11.17655-84.272335-28.481681-121.857348-51.375088-39.206954-23.88499-73.907267-53.357232-103.020329-87.427188-29.473265-34.610262-52.456722-73.186859-68.320015-114.467032-16.313547-42.993187-24.605398-88.058568-24.605397-133.935432 0-54.529941 11.626805-107.526969 34.610262-157.279092 22.081924-47.950082 53.718459-90.942245 93.916996-127.805828 40.018436-36.683481 86.615707-65.525366 138.442073-85.625146 53.538357-20.730137 110.320595-31.275307 168.905897-31.275308 58.585303 0 115.368564 10.54517 168.905898 31.275308 51.825342 20.09978 98.423637 48.941666 138.442072 85.625146 40.198537 36.863582 71.745021 79.856769 93.916997 127.805828 22.983457 49.842175 34.610262 102.750175 34.610262 157.279092 0 44.525076-8.201799 88.508823-24.335245 130.87063-15.503089 40.558741-37.855166 78.685084-66.607 113.385397C799.288099 777.312598 722.315006 827.876204 637.502365 853.112981l-109.058858 98.69379c-5.319146 4.597715-11.80793 6.941086-18.297738 6.941086z m-0.360204-840.655252c-51.825342 0-102.118795 9.283434-149.347446 27.6702-45.51666 17.665335-86.345554 42.902112-121.407094 75.078952-71.564919 65.615417-110.951975 152.772452-110.951975 245.24761 0 157.820422 116.720352 296.17142 283.823184 336.460009 4.776793 1.171686 9.103332 3.605108 12.618389 7.030113l86.345554 84.993766 94.818529-85.715197c3.064802-2.793626 6.759961-4.866844 10.815323-5.948479 76.791967-21.63167 146.643871-66.787102 196.486046-126.995369 24.966625-30.103622 44.344974-63.091944 57.683771-98.153484 13.790074-36.143175 20.820188-73.727165 20.820188-111.582331 0-92.475158-39.387056-179.632193-110.951975-245.24761-35.06154-32.266891-75.890434-57.503669-121.407094-75.170027-47.316655-18.384719-97.520057-27.668153-149.3454-27.668153zM561.160653 181.634804v2.703575-2.703575z" fill="" p-id="7133"></path><path d="M283.556101 472.127897c0 21.553898 17.472953 39.026852 39.026852 39.026852s39.026852-17.472953 39.026852-39.026852-17.472953-39.026852-39.026852-39.026852-39.026852 17.472953-39.026852 39.026852zM470.938815 472.127897c0 21.553898 17.472953 39.026852 39.026852 39.026852s39.026852-17.472953 39.026852-39.026852-17.472953-39.026852-39.026852-39.026852-39.026852 17.472953-39.026852 39.026852zM658.32153 472.127897c0 21.553898 17.472953 39.026852 39.026852 39.026852s39.026852-17.472953 39.026852-39.026852-17.472953-39.026852-39.026852-39.026852-39.026852 17.472953-39.026852 39.026852z" fill="" p-id="7134"></path><path d="M510.145769 958.747857a26.968212 26.968212 0 0 1-18.927071-7.751544l-99.415221-97.702206c-43.263339-11.17655-84.272335-28.481681-121.857348-51.375088-39.206954-23.88499-73.907267-53.357232-103.020329-87.427188-29.473265-34.610262-52.456722-73.186859-68.320015-114.467032-16.313547-42.993187-24.605398-88.058568-24.605397-133.935432 0-54.529941 11.626805-107.526969 34.610262-157.279092 22.081924-47.950082 53.718459-90.942245 93.916996-127.805828 40.018436-36.683481 86.615707-65.525366 138.442073-85.625146 53.538357-20.730137 110.320595-31.275307 168.905897-31.275308 58.585303 0 115.368564 10.54517 168.905898 31.275308 51.825342 20.09978 98.423637 48.941666 138.442072 85.625146 40.198537 36.863582 71.745021 79.856769 93.916997 127.805828 22.983457 49.842175 34.610262 102.750175 34.610262 157.279092 0 44.525076-8.201799 88.508823-24.335245 130.87063-15.503089 40.558741-37.855166 78.685084-66.607 113.385397C799.288099 777.312598 722.315006 827.876204 637.502365 853.112981l-109.058858 98.69379c-5.319146 4.597715-11.80793 6.941086-18.297738 6.941086z m-0.360204-840.655252c-51.825342 0-102.118795 9.283434-149.347446 27.6702-45.51666 17.665335-86.345554 42.902112-121.407094 75.078952-71.564919 65.615417-110.951975 152.772452-110.951975 245.24761 0 157.820422 116.720352 296.17142 283.823184 336.460009 4.776793 1.171686 9.103332 3.605108 12.618389 7.030113l86.345554 84.993766 94.818529-85.715197c3.064802-2.793626 6.759961-4.866844 10.815323-5.948479 76.791967-21.63167 146.643871-66.787102 196.486046-126.995369 24.966625-30.103622 44.344974-63.091944 57.683771-98.153484 13.790074-36.143175 20.820188-73.727165 20.820188-111.582331 0-92.475158-39.387056-179.632193-110.951975-245.24761-35.06154-32.266891-75.890434-57.503669-121.407094-75.170027-47.316655-18.384719-97.520057-27.668153-149.3454-27.668153z" fill="" p-id="7135"></path></svg>