<?xml version="1.0" standalone="no"?><!DOCTYPE svg PUBLIC "-//W3C//DTD SVG 1.1//EN" "http://www.w3.org/Graphics/SVG/1.1/DTD/svg11.dtd"><svg t="1711961668062" class="icon" viewBox="0 0 1024 1024" version="1.1" xmlns="http://www.w3.org/2000/svg" p-id="8320" xmlns:xlink="http://www.w3.org/1999/xlink" width="200" height="200"><path d="M809.90296081 933.875H214.09703919c-66.61184189 0-122.12171026-55.50986838-122.12171027-122.12171026V212.24671027C91.97532892 145.63486838 147.4851973 90.125 214.09703919 90.125h595.80592162c66.61184189 0 122.12171026 55.50986838 122.12171027 122.12171026v599.50657947c0 66.61184189-51.80921054 122.12171026-122.12171027 122.12171027zM214.09703919 141.93421054c-40.70723703 0-70.31249973 33.30592136-70.31249973 70.31249972v599.50657947c0 40.70723703 33.30592136 70.31249973 70.31249973 70.31249973h595.80592162c40.70723703 0 70.31249973-33.30592136 70.31249973-70.31249973V212.24671027c0-40.70723703-33.30592136-70.31249973-70.31249973-70.31249973H214.09703919z" p-id="8321"></path><path d="M750.6924346 323.26644702H277.00822407c-14.80263135 0-25.90460486-11.10197351-25.90460569-25.90460486s11.10197351-25.90460486 25.90460568-25.90460568h473.68421054c14.80263135 0 25.90460486 11.10197351 25.90460486 25.90460568s-11.10197351 25.90460486-25.90460486 25.90460487zM580.46217081 515.70065784H277.00822407c-14.80263135 0-25.90460486-11.10197351-25.90460569-25.90460486s11.10197351-25.90460486 25.90460568-25.90460568h307.15460458c14.80263135 0 25.90460486 11.10197351 25.90460568 25.90460567s-14.80263135 25.90460486-29.60526351 25.90460487zM750.6924346 711.83552649H277.00822407c-14.80263135 0-25.90460486-11.10197351-25.90460569-25.90460568s11.10197351-25.90460486 25.90460568-25.90460486h473.68421054c14.80263135 0 25.90460486 11.10197351 25.90460486 25.90460486s-11.10197351 25.90460486-25.90460486 25.90460568z" p-id="8322"></path></svg>