<?xml version="1.0" standalone="no"?><!DOCTYPE svg PUBLIC "-//W3C//DTD SVG 1.1//EN" "http://www.w3.org/Graphics/SVG/1.1/DTD/svg11.dtd"><svg t="1686299036148" class="icon" viewBox="0 0 1024 1024" version="1.1" xmlns="http://www.w3.org/2000/svg" p-id="3633" xmlns:xlink="http://www.w3.org/1999/xlink" width="128" height="128"><path d="M983.771429 367.542857a510.514286 510.514286 0 0 0-109.714286-162.742857 510.514286 510.514286 0 0 0-162.742857-109.714286C648.114286 68.342857 581.142857 54.857143 512 54.857143s-136.114286 13.485714-199.314286 40.228571a510.514286 510.514286 0 0 0-162.742857 109.714286 510.514286 510.514286 0 0 0-109.714286 162.742857C13.485714 430.742857 0 497.714286 0 566.857143c0 151.657143 66.628571 294.514286 182.742857 392.114286l1.942857 1.6c6.628571 5.485714 14.971429 8.571429 23.542857 8.571428h607.657143c8.571429 0 16.914286-3.085714 23.542857-8.571428l1.942858-1.6C957.371429 861.371429 1024 718.514286 1024 566.857143c0-69.142857-13.6-136.114286-40.228571-199.314286zM797.028571 882.285714H226.971429A424.137143 424.137143 0 0 1 86.857143 566.857143c0-113.6 44.228571-220.342857 124.571428-300.571429 80.342857-80.342857 187.085714-124.571429 300.571429-124.571428 113.6 0 220.342857 44.228571 300.571429 124.571428 80.342857 80.342857 124.571429 187.085714 124.571428 300.571429 0 120.685714-50.857143 234.857143-140.114286 315.428571zM639.428571 408.571429a9.177143 9.177143 0 0 0-12.914285 0L529.942857 505.142857c-21.371429-5.714286-45.028571-0.228571-61.828571 16.571429a63.942857 63.942857 0 0 0 0 90.514285 63.942857 63.942857 0 0 0 90.514285 0 63.851429 63.851429 0 0 0 16.571429-61.828571l96.571429-96.571429c3.542857-3.542857 3.542857-9.371429 0-12.914285l-32.342858-32.342857zM486.857143 292.571429h50.285714c5.028571 0 9.142857-4.114286 9.142857-9.142858v-91.428571c0-5.028571-4.114286-9.142857-9.142857-9.142857h-50.285714c-5.028571 0-9.142857 4.114286-9.142857 9.142857v91.428571c0 5.028571 4.114286 9.142857 9.142857 9.142858z m297.142857 249.142857v50.285714c0 5.028571 4.114286 9.142857 9.142857 9.142857h91.428572c5.028571 0 9.142857-4.114286 9.142857-9.142857v-50.285714c0-5.028571-4.114286-9.142857-9.142857-9.142857h-91.428572c-5.028571 0-9.142857 4.114286-9.142857 9.142857z m14.514286-225.371429l-35.542857-35.542857a9.177143 9.177143 0 0 0-12.914286 0l-64.685714 64.685714a9.177143 9.177143 0 0 0 0 12.914286l35.542857 35.542857c3.542857 3.542857 9.371429 3.542857 12.914285 0l64.685715-64.685714c3.542857-3.542857 3.542857-9.371429 0-12.914286z m-524.114286-35.542857a9.177143 9.177143 0 0 0-12.914286 0l-35.542857 35.542857a9.177143 9.177143 0 0 0 0 12.914286l64.685714 64.685714c3.542857 3.542857 9.371429 3.542857 12.914286 0l35.542857-35.542857c3.542857-3.542857 3.542857-9.371429 0-12.914286l-64.685714-64.685714zM226.285714 532.571429h-91.428571c-5.028571 0-9.142857 4.114286-9.142857 9.142857v50.285714c0 5.028571 4.114286 9.142857 9.142857 9.142857h91.428571c5.028571 0 9.142857-4.114286 9.142857-9.142857v-50.285714c0-5.028571-4.114286-9.142857-9.142857-9.142857z" p-id="3634"></path></svg>