<?xml version="1.0" standalone="no"?><!DOCTYPE svg PUBLIC "-//W3C//DTD SVG 1.1//EN" "http://www.w3.org/Graphics/SVG/1.1/DTD/svg11.dtd"><svg t="1686299251924" class="icon" viewBox="0 0 1024 1024" version="1.1" xmlns="http://www.w3.org/2000/svg" p-id="10052" xmlns:xlink="http://www.w3.org/1999/xlink" width="128" height="128"><path d="M629.76 849.92v151.04l220.16-184.32H665.6c-17.92 0-35.84 15.36-35.84 33.28z m184.32-742.4H125.44c-17.92 0-33.28 20.48-33.28 38.4v824.32c0 17.92 12.8 30.72 30.72 30.72h473.6v-184.32c0-17.92 17.92-35.84 33.28-35.84h220.16v-640c0-15.36-17.92-35.84-35.84-33.28z m-563.2 624.64c-23.04 0-40.96-17.92-40.96-40.96 0-23.04 17.92-40.96 40.96-40.96s40.96 17.92 40.96 40.96c0 20.48-17.92 40.96-40.96 40.96z m0-186.88c-23.04 0-40.96-17.92-40.96-40.96 0-23.04 17.92-40.96 40.96-40.96s40.96 17.92 40.96 40.96c0 23.04-17.92 40.96-40.96 40.96z m0-184.32c-23.04 0-40.96-17.92-40.96-40.96 0-23.04 17.92-40.96 40.96-40.96s40.96 17.92 40.96 40.96c0 20.48-17.92 40.96-40.96 40.96z m445.44 335.36c0 10.24-7.68 17.92-17.92 17.92H376.32c-10.24 0-17.92-7.68-17.92-17.92v-17.92c0-10.24 7.68-17.92 17.92-17.92h302.08c10.24 0 17.92 7.68 17.92 17.92v17.92z m0-184.32c0 10.24-7.68 17.92-17.92 17.92H376.32c-10.24 0-17.92-7.68-17.92-17.92v-17.92c0-10.24 7.68-17.92 17.92-17.92h302.08c10.24 0 17.92 7.68 17.92 17.92v17.92z m0-184.32c0 10.24-7.68 17.92-17.92 17.92H376.32c-10.24 0-17.92-7.68-17.92-17.92v-17.92c0-10.24 7.68-17.92 17.92-17.92h302.08c10.24 0 17.92 7.68 17.92 17.92v17.92zM903.68 23.04H202.24c-25.6 0-43.52 25.6-43.52 51.2h691.2c17.92 0 33.28 17.92 33.28 33.28v624.64c25.6 0 51.2-15.36 51.2-40.96V53.76c-2.56-17.92-15.36-30.72-30.72-30.72z" fill="" p-id="10053"></path></svg>