<?xml version="1.0" standalone="no"?><!DOCTYPE svg PUBLIC "-//W3C//DTD SVG 1.1//EN" "http://www.w3.org/Graphics/SVG/1.1/DTD/svg11.dtd"><svg t="1526283460904" class="icon" style="" viewBox="0 0 1024 1024" version="1.1" xmlns="http://www.w3.org/2000/svg" p-id="3665" xmlns:xlink="http://www.w3.org/1999/xlink" width="128" height="128"><defs><style type="text/css"></style></defs><path d="M563.197497 0 460.802503 0 0.012259 486.388227c0 0 0.901006 102.396016 51.200051 102.396016s76.797012 0 76.797012 0 0 232.496449 0 332.816677c0 100.300818 102.397038 102.399081 102.397038 102.399081l204.79714 0c0 0 0-272.419617 0-358.416702 0-25.647017 25.600026-25.600026 25.600026-25.600026l102.394994 0c0 0 25.601047 0.851972 25.601047 25.600026 0 92.198911 0 358.416702 0 358.416702s99.647027 0 204.795097 0c105.147048 0 102.398059-102.399081 102.398059-102.399081L895.992721 563.185239c0 0 27.19875 0 76.799055 0 49.59724 0 51.195965-76.79599 51.195965-76.79599L563.197497 0z" p-id="3666"></path></svg>