<svg t="1725785071682" class="icon" viewBox="0 0 1024 1024" version="1.1" xmlns="http://www.w3.org/2000/svg" p-id="2587" width="200" height="200"><path d="M224.25961538 763.86326247h-51.02135291m163.52135291 0h-14.96422401m65.98557693 0h-14.96337891m0 0H336.75961538m314.42279523 0h-14.96337891m65.98557693 0H687.24038462m163.52135291 0H799.74038462m-112.5 0h-36.05797401m203.36538461-504.26739033H169.45220478A36.05797401 36.05797401 0 0 0 133.39423077 295.65384615v432.6923077a36.05797401 36.05797401 0 0 0 36.05797401 36.05797401h54.08653846l48.85789138-48.85873649 49.39875675 48.85873649h65.98557693l48.85873648-48.85873649 48.67788461 48.85873649h54.08653847l48.85789137-48.85873649 47.95701247 48.85873649h65.98557693l48.85789137-48.85873649 49.39875676 48.85873649h54.08653846A36.05797401 36.05797401 0 0 0 890.60576923 728.34615385V295.65384615a36.05797401 36.05797401 0 0 0-36.05797401-36.05797401z m0 450.72171725A18.02856445 18.02856445 0 0 1 836.51923077 728.34615385h-21.81462214l-63.82211539-63.82211539L687.24038462 728.34615385h-36.05797401l-63.82211539-63.82211539L523.7190317 728.34615385h-23.4380634l-63.82211539-63.82211539L372.81758939 728.34615385H336.75961538l-63.82211538-63.82211539L209.29539137 728.34615385H187.48076923a18.02856445 18.02856445 0 0 1-18.02856445-18.02856446V313.68241061A18.02856445 18.02856445 0 0 1 187.48076923 295.65384615h649.03846154a18.02856445 18.02856445 0 0 1 18.02856445 18.02856446z" p-id="2588"></path><path d="M264.46366061 372.63673753l57.51258263 106.55048077 57.51173753-106.55048077h32.09106445L345.41346154 489.10364709h48.31702599v16.22596154H336.21875v31.91105769h57.51173753v16.22596154H336.21875v51.02135291h-28.66586538v-51.02135291h-57.15172401v-16.22596154h57.15172401V505.50961538h-57.15172401v-16.22596153H298.35817308l-66.16558369-116.64691632z m245.55288461 36.05797401H762.42067308v36.05797401H510.01654522z m0 126.20164137H762.42067308v36.05797401H510.01654522z" p-id="2589"></path></svg>