<svg t="1725785181209" class="icon" viewBox="0 0 1024 1024" version="1.1" xmlns="http://www.w3.org/2000/svg" p-id="2740" width="200" height="200"><path d="M1024 824c0 110-90 200-200 200H200C90 1024 0 934 0 824V200C0 90 90 0 200 0h624c110 0 200 90 200 200v624z" fill="#BB4A96" p-id="2741"></path><path d="M714.188 205.188H242.462c-16.847 0-30.325 13.475-30.325 30.325V727.45c0 13.475 6.737 23.587 16.847 33.693l3.375 3.369 43.8 40.438c6.741 3.362 13.479 6.731 20.213 6.731 10.109 0 16.853-3.369 20.219-6.731l40.438-33.694 37.065 33.694c6.734 3.362 13.472 6.731 20.212 6.731 6.738 0 16.847-3.369 20.219-6.731l37.066-33.694 43.8 33.694c10.109 6.731 23.584 6.731 30.322 0-74.122-60.656-94.341-165.106-43.8-245.976 50.538-80.862 151.625-111.193 239.225-74.125l3.375-249.337c0-16.849-13.476-30.324-30.325-30.324zM404.197 589.3c-3.369 3.375-6.741 3.375-10.103 3.375H286.269c-6.737 0-13.478-6.743-13.478-13.481 0-6.737 6.741-13.48 13.478-13.48h107.825c6.734 0 13.472 6.743 13.472 13.48-0.001 3.369-0.001 6.738-3.369 10.106z m20.219-114.563H286.269c-6.737 0-13.478-6.737-13.478-16.85 0-3.363 0-6.738 3.369-6.738 3.372-3.369 6.741-3.369 10.109-3.369h138.147c6.738 0 13.478 6.744 13.478 13.481 0 6.739-3.369 13.476-13.478 13.476z m60.647-134.775H286.269c-6.737 0-13.478-6.737-13.478-13.475 0-6.737 0-10.112 3.369-10.112 3.372-3.369 6.741-3.369 10.109-3.369h198.794c6.741 0 13.478 6.744 13.478 13.481 0 6.738-6.738 13.475-13.478 13.475z m0 0" fill="#FFFFFF" p-id="2742"></path><path d="M667.013 508.438c-84.237 0-151.622 67.388-151.622 151.625 0 84.231 67.385 151.619 151.622 151.619s151.625-67.388 151.625-151.619c0-84.238-67.388-151.625-151.625-151.625z m74.125 198.799H690.6v30.319c0 6.737-6.737 13.48-13.475 13.48s-13.475-6.743-13.475-13.48v-30.319H613.1c-6.737 0-13.475-6.743-13.475-13.487 0-6.731 6.737-13.475 13.475-13.475h50.551v-23.588H613.1c-6.737 0-13.475-6.737-13.475-13.475 0-6.738 6.737-13.481 13.475-13.481h30.338l-33.7-33.688c-3.375-3.369-3.375-6.744-3.375-10.112 0-3.369 0-6.738 3.375-10.106 3.362-3.369 13.476-3.369 16.838 0l47.175 47.169 47.175-47.169c3.375-3.369 13.476-3.369 16.851 0 3.362 3.368 3.362 6.737 3.362 10.106 0 3.368 0 6.743-3.362 10.112l-33.7 33.688h33.7c3.362 0 6.737 3.368 10.1 6.743 3.375 3.369 3.375 10.106 0 13.476 0 3.368-6.737 6.737-10.1 6.737H690.6v23.588h50.538c6.737 0 13.487 6.743 13.487 13.475 0 6.744-6.75 13.487-13.487 13.487z m0 0" fill="#FFFFFF" p-id="2743"></path></svg>