<?xml version="1.0" standalone="no"?><!DOCTYPE svg PUBLIC "-//W3C//DTD SVG 1.1//EN" "http://www.w3.org/Graphics/SVG/1.1/DTD/svg11.dtd"><svg t="1542852993843" class="icon" style="" viewBox="0 0 1024 1024" version="1.1" xmlns="http://www.w3.org/2000/svg" p-id="2043" xmlns:xlink="http://www.w3.org/1999/xlink" width="54" height="54"><defs><style type="text/css"></style></defs><path d="M825.6 554.666667c-64 0-121.6-38.4-155.733333-89.6C633.6 516.266667 576 554.666667 512 554.666667s-121.6-38.4-155.733333-89.6C320 516.266667 264.533333 554.666667 198.4 554.666667 89.6 554.666667 0 465.066667 0 356.266667v-8.533334L151.466667 0h721.066666L1024 345.6v8.533333c0 110.933333-89.6 200.533333-198.4 200.533334z m-200.533333-219.733334h85.333333c0 61.866667 51.2 134.4 113.066667 134.4 59.733333 0 108.8-46.933333 113.066666-104.533333L817.066667 85.333333H206.933333L85.333333 364.8c4.266667 57.6 53.333333 104.533333 113.066667 104.533333 64 0 113.066667-74.666667 113.066667-134.4h85.333333c0 61.866667 51.2 134.4 113.066667 134.4 66.133333 0 115.2-74.666667 115.2-134.4zM810.666667 1021.866667H213.333333c-83.2 0-149.333333-64-149.333333-142.933334V595.2h85.333333v283.733333c0 32 27.733333 57.6 64 57.6h597.333334c34.133333 0 64-25.6 64-57.6V595.2h85.333333v283.733333c0 78.933333-66.133333 142.933333-149.333333 142.933334z" p-id="2044"></path></svg>