<svg t="1725797808971" class="icon" viewBox="0 0 1024 1024" version="1.1" xmlns="http://www.w3.org/2000/svg" p-id="5499" width="200" height="200"><path d="M128 42.666667h262.570667a85.333333 85.333333 0 0 1 85.333333 85.333333v262.570667a85.333333 85.333333 0 0 1-85.333333 85.333333H128a85.333333 85.333333 0 0 1-85.333333-85.333333V128a85.333333 85.333333 0 0 1 85.333333-85.333333z m0 85.333333v262.570667h262.570667V128H128zM633.429333 42.666667H896a85.333333 85.333333 0 0 1 85.333333 85.333333v262.570667a85.333333 85.333333 0 0 1-85.333333 85.333333h-262.570667a85.333333 85.333333 0 0 1-85.333333-85.333333V128a85.333333 85.333333 0 0 1 85.333333-85.333333z m0 85.333333v262.570667H896V128h-262.570667zM128 548.096h262.570667a85.333333 85.333333 0 0 1 85.333333 85.333333V896a85.333333 85.333333 0 0 1-85.333333 85.333333H128a85.333333 85.333333 0 0 1-85.333333-85.333333v-262.570667a85.333333 85.333333 0 0 1 85.333333-85.333333z m0 85.333333V896h262.570667v-262.570667H128z" fill="#e6e6e6" p-id="5500"></path><path d="M725.333333 602.026667v-5.376a42.666667 42.666667 0 0 1 85.333334 0v5.376c15.658667 4.010667 30.464 10.24 44.032 18.218666l3.84-3.84a42.581333 42.581333 0 1 1 60.330666 60.288l-3.84 3.84c8.021333 13.525333 14.250667 28.330667 18.261334 43.946667H938.666667a42.666667 42.666667 0 1 1 0 85.248h-5.376c-4.010667 15.616-10.24 30.421333-18.261334 43.946667l3.84 3.84a42.581333 42.581333 0 0 1 0 60.288c-16.682667 16.64-43.733333 16.64-60.373333 0l-3.84-3.84c-13.696 8.106667-28.544 14.250667-43.989333 18.218666v5.376a42.666667 42.666667 0 0 1-85.333334 0v-5.376a169.898667 169.898667 0 0 1-44.032-18.218666l-3.84 3.84a42.666667 42.666667 0 0 1-59.818666-0.554667 42.581333 42.581333 0 0 1-0.512-59.733333l3.84-3.84a169.557333 169.557333 0 0 1-18.261334-43.946667H597.333333a42.666667 42.666667 0 1 1 0-85.248h5.376c4.010667-15.616 10.24-30.421333 18.261334-43.946667l-3.84-3.84a42.581333 42.581333 0 0 1 0-60.288c16.682667-16.64 43.690667-16.64 60.373333 0l3.797333 3.84c13.738667-8.106667 28.586667-14.250667 44.032-18.218666z m42.666667 250.282666a85.12 85.12 0 1 0 0-170.453333 85.290667 85.290667 0 1 0 0 170.453333z" fill="#e6e6e6" p-id="5501"></path></svg>