<?xml version="1.0" standalone="no"?><!DOCTYPE svg PUBLIC "-//W3C//DTD SVG 1.1//EN" "http://www.w3.org/Graphics/SVG/1.1/DTD/svg11.dtd"><svg t="1540454363495" class="icon" style="" viewBox="0 0 1024 1024" version="1.1" xmlns="http://www.w3.org/2000/svg" p-id="1978" xmlns:xlink="http://www.w3.org/1999/xlink" width="64" height="64"><defs><style type="text/css"></style></defs><path d="M789 112.1c8.1 0 15.9 1.6 23.2 4.8 11.7 4.6 20.9 11.8 27.8 21.7s10.3 20.8 10.3 32.8v681.5c0 12-3.4 22.9-10.3 32.8-6.9 9.9-16.1 17.1-27.8 21.7-6.7 2.8-14.5 4.2-23.2 4.2-16.9 0-31.6-5.7-43.9-16.9l-233-224.3-233.2 224.1C266.2 906.2 251.5 912 235 912c-8.1 0-15.9-1.6-23.2-4.8-11.7-4.6-20.9-11.8-27.8-21.7-6.9-9.9-10.3-20.8-10.3-32.8V171.3c0-12 3.4-22.9 10.3-32.8 6.9-9.9 16.1-17.1 27.8-21.7 7.4-3.2 15.1-4.8 23.2-4.8h554v0.1z" p-id="1979"></path></svg>