<?xml version="1.0" standalone="no"?><!DOCTYPE svg PUBLIC "-//W3C//DTD SVG 1.1//EN" "http://www.w3.org/Graphics/SVG/1.1/DTD/svg11.dtd"><svg t="1539332023716" class="icon" style="" viewBox="0 0 1024 1024" version="1.1" xmlns="http://www.w3.org/2000/svg" p-id="5427" xmlns:xlink="http://www.w3.org/1999/xlink" width="64" height="64"><defs><style type="text/css"></style></defs><path d="M962.92864 602.1888c-9.09824 48.42496-43.42272 80.96256-85.41696 80.96256h-4.8128a54.66624 54.66624 0 0 0-54.0672 55.08096 49.7408 49.7408 0 0 0 2.4576 12.96896q1.08544 3.69664 2.50368 7.2704a100.53632 100.53632 0 0 1-34.78528 122.7776l-3.072 1.9968c-0.54784 0.3584-1.11616 0.70144-1.6896 1.024l-104.14592 58.368a28.672 28.672 0 0 1-2.56 1.2288l-1.024 0.512a100.65408 100.65408 0 0 1-40.61696 8.35072 105.01632 105.01632 0 0 1-75.81184-31.7696 141.89056 141.89056 0 0 0-33.75616-25.72288 26.39872 26.39872 0 0 0-12.288-3.072 23.38304 23.38304 0 0 0-12.17024 3.33312 145.88928 145.88928 0 0 0-33.76128 26.112 104.73984 104.73984 0 0 1-76.31872 32.3328 99.79392 99.79392 0 0 1-39.89504-8.09984l-0.87552-0.35328-3.22048-1.536q-0.88064-0.43008-1.7408-0.9216l-107.8272-59.95008a28.38016 28.38016 0 0 1-2.56-1.64352l-1.024-0.7168a100.52096 100.52096 0 0 1-34.01728-122.46016q1.3312-3.456 2.35008-7.01952a50.04288 50.04288 0 0 0 2.5088-13.02016 54.66624 54.66624 0 0 0-54.04672-55.05536h-4.34688c-42.30656 0-76.8-32.5376-85.888-80.96256a531.18464 531.18464 0 0 1-9.41056-90.50112 520.84736 520.84736 0 0 1 9.46176-90.54208c9.05728-48.41984 43.58144-80.96256 85.98528-80.96256h4.1984A54.66112 54.66112 0 0 0 205.312 285.11744a80.73216 80.73216 0 0 0-4.96128-20.23936 100.6336 100.6336 0 0 1 33.86368-122.15808l0.81408-0.5632 2.9696-1.95072c0.56832-0.3584 1.14688-0.70144 1.7408-1.024l102.16448-57.64608a30.6688 30.6688 0 0 1 2.50368-1.23392l1.024-0.512a99.584 99.584 0 0 1 40.70912-8.46336 103.7568 103.7568 0 0 1 76.88192 33.31072 150.1184 150.1184 0 0 0 35.80416 28.07808 23.35232 23.35232 0 0 0 21.73952 0.1536 148.08064 148.08064 0 0 0 36.46976-28.99968 103.69536 103.69536 0 0 1 77.34272-33.82272 99.6352 99.6352 0 0 1 40.00256 8.192l0.9216 0.41472 3.11808 1.47968q0.86016 0.4352 1.6896 0.92672l105.88672 59.28448a28.55936 28.55936 0 0 1 2.45248 1.536l1.024 0.7168a100.67968 100.67968 0 0 1 34.01728 122.46016c0 0.0512-1.1264 2.82112-2.3552 7.01952a49.92 49.92 0 0 0-2.50368 13.02016 54.67648 54.67648 0 0 0 54.0672 55.08096h4.24448c42.35776 0 76.88704 32.54272 85.9392 80.96256a525.312 525.312 0 0 1 9.46176 90.48576v0.05632a534.3744 534.3744 0 0 1-9.41568 90.50624z m-49.46432-173.92128c-2.96448-15.83104-12.63616-34.35008-30.00832-34.35008h-4.27008a113.96096 113.96096 0 0 1-113.44384-114.176 106.22464 106.22464 0 0 1 4.9408-29.696 133.4016 133.4016 0 0 1 4.94592-14.12096 43.87328 43.87328 0 0 0-14.15168-52.40832l-0.26112-0.1536-0.2048-0.1536-106.74176-59.33568-0.2048-0.1536-0.26112-0.10752a47.77984 47.77984 0 0 0-52.0192 11.72992c-16.69632 18.36544-57.2672 53.13536-91.5456 53.13536-13.824 0-31.05792-6.22592-49.664-18.00704a213.08928 213.08928 0 0 1-41.20576-34.11968 47.77984 47.77984 0 0 0-52.1728-11.3152l-0.256 0.1024-0.20992 0.1536-102.99392 57.94304-0.20992 0.10752-0.26112 0.2048a43.99616 43.99616 0 0 0-14.10048 52.40832 142.47424 142.47424 0 0 1 4.9408 14.12096 105.6256 105.6256 0 0 1 4.9408 29.696 113.98656 113.98656 0 0 1-113.50016 114.176h-4.34688c-17.26976 0.1024-26.89024 18.57536-29.85472 34.35008a466.432 466.432 0 0 0-8.58624 80.896 466.8672 466.8672 0 0 0 8.58624 80.95232c2.96448 15.82592 12.58496 34.35008 29.90592 34.35008h4.352a113.96096 113.96096 0 0 1 113.44896 114.176 105.3952 105.3952 0 0 1-4.9408 29.696 117.02784 117.02784 0 0 1-4.9408 14.11072 43.84256 43.84256 0 0 0 14.20288 52.41344l0.26112 0.1536 0.26112 0.15872 108.544 60.0832 0.256 0.10752 0.31232 0.1024a48.71168 48.71168 0 0 0 52.0192-11.15648c16.384-17.3312 56.22784-50.0224 89.46688-50.0224 32.97792 0 72.61696 32.06656 88.94464 49.03936a48.7936 48.7936 0 0 0 52.17792 10.79296l0.20992-0.1024 0.256-0.15872 104.86272-58.68544 0.26112-0.15872 0.20992-0.1536a43.93984 43.93984 0 0 0 14.14656-52.41344 142.18752 142.18752 0 0 1-4.992-14.11072 107.33056 107.33056 0 0 1-4.8896-29.696 113.98144 113.98144 0 0 1 113.49504-114.176h4.7872c10.61376 0 24.65792-8.97536 29.44512-34.35008h0.04608a478.67392 478.67392 0 0 0 8.58624-80.896 466.65216 466.65216 0 0 0-8.576-80.98304z m-203.8784 142.848a23.95136 23.95136 0 0 1-1.024 8.75008 189.58336 189.58336 0 0 1-73.07264 95.38048 185.856 185.856 0 0 1-107.28448 34.03264 189.48608 189.48608 0 0 1-178.51904-128.8448 24.15104 24.15104 0 0 1-1.024-7.59808 192.12288 192.12288 0 0 1 4.37248-124.21632 24.09472 24.09472 0 0 1 1.39776-6.82496 188.928 188.928 0 0 1 173.76768-116.49024 185.344 185.344 0 0 1 79.04768 17.664 189.29664 189.29664 0 0 1 96.54784 98.9952 23.94112 23.94112 0 0 1 1.536 8.38656 194.41152 194.41152 0 0 1 4.25472 120.75008z m-179.8656-196.98176a142.94016 142.94016 0 1 0 68.29056 267.89888 144.60928 144.60928 0 0 0-26.84416-261.57568 140.98944 140.98944 0 0 0-41.4464-6.33856z" p-id="5428"></path></svg>