<?xml version="1.0" standalone="no"?><!DOCTYPE svg PUBLIC "-//W3C//DTD SVG 1.1//EN" "http://www.w3.org/Graphics/SVG/1.1/DTD/svg11.dtd"><svg t="1539332319502" class="icon" style="" viewBox="0 0 1024 1024" version="1.1" xmlns="http://www.w3.org/2000/svg" p-id="8983" xmlns:xlink="http://www.w3.org/1999/xlink" width="64" height="64"><defs><style type="text/css"></style></defs><path d="M348.661 154.658c18.25 0 33.169-14.786 33.169-33.169v-11.056h198.883v11.056c0 18.25 14.786 33.169 33.169 33.169 18.25 0 33.169-14.786 33.169-33.169v-88.319c0-18.25-14.786-33.169-33.169-33.169-18.25 0-33.169 14.786-33.169 33.169v11.056h-198.883v-11.056c0-18.25-14.786-33.169-33.169-33.169-18.25 0-33.169 14.786-33.169 33.169v88.319c0 18.25 14.786 33.169 33.169 33.169v0z" p-id="8984"></path><path d="M430.319 887.849h-210.473c-44.359 0-80.459-37.033-80.459-82.457v-612.636c0-45.425 36.1-82.457 80.459-82.457 18.25 0 33.169-14.786 33.169-33.169s-14.786-33.169-33.169-33.169c-80.859 0-146.798 66.739-146.798 148.796v612.636c0 82.058 65.806 148.796 146.798 148.796h210.473c18.25 0 33.169-14.786 33.169-33.169 0-18.25-14.92-33.169-33.169-33.169v0z" p-id="8985"></path><path d="M742.565 43.96c-18.25 0-33.169 14.786-33.169 33.169 0 18.25 14.786 33.169 33.169 33.169 44.359 0 80.459 37.033 80.459 82.457v325.034c0 18.25 14.786 33.169 33.169 33.169 18.25 0 33.169-14.786 33.169-33.169v-325.034c0-82.058-65.806-148.796-146.798-148.796v0z" p-id="8986"></path><path d="M658.776 317.041h-355.14c-18.25 0-33.303-14.92-33.303-33.303v0c0-18.25 14.92-33.303 33.303-33.303h355.006c18.383 0 33.303 14.92 33.303 33.303v0c0.133 18.25-14.92 33.303-33.169 33.303z" p-id="8987"></path><path d="M658.776 466.237h-355.14c-18.25 0-33.303-14.92-33.303-33.303v0c0-18.25 14.92-33.303 33.303-33.303h355.006c18.383 0 33.303 15.053 33.303 33.303v0c0.133 18.25-14.92 33.303-33.169 33.303z" p-id="8988"></path><path d="M466.153 643.407h-171.709c-13.188 0-24.111-10.79-24.111-24.111v-18.516c0-13.188 10.79-24.111 24.111-24.111h171.709c13.188 0 24.111 10.79 24.111 24.111v18.516c0 13.321-10.79 24.111-24.111 24.111z" p-id="8989"></path><path d="M946.244 748.244c-1.465-26.242 10.79-52.485 36.5-77.928 6.261-6.261 7.327-15.985 2.531-23.312-31.837-48.755-38.365-59.945-39.43-62.076-0.799-1.865-1.865-3.463-3.197-5.062-4.929-5.462-12.522-7.593-19.582-5.328-0.533 0.133-54.483 17.184-95.912-6.261-21.847-12.389-36.5-34.368-43.826-65.673-1.998-8.659-9.858-14.653-18.783-14.387l-78.195 2.931c-9.058 0.4-16.651 7.193-17.717 16.252 0 0.4-6.927 47.157-41.828 71.268-22.912 15.852-53.551 19.316-91.383 10.257-8.126-1.865-16.518 1.865-20.648 9.192-34.235 62.343-37.965 69.003-38.365 69.669-2.131 3.597-2.931 7.859-2.398 12.122 0.799 5.328 3.73 9.991 8.259 12.921 0.4 0.266 38.098 25.31 42.494 64.607 2.931 26.775-10.124 55.149-38.898 84.589-6.128 6.261-7.060 15.985-2.265 23.312l44.492 67.271c5.062 7.726 15.053 10.524 23.445 6.527 0.4-0.133 41.562-19.049 79.26-2.531 25.443 11.056 44.492 36.1 56.748 74.465 2.531 7.993 10.124 13.188 18.383 12.921l79.127-3.064c8.925-0.4 16.252-6.927 17.717-15.719 0.133-0.533 8.126-48.222 44.359-72.333 22.646-15.053 52.219-18.25 88.185-9.458 8.259 1.998 16.785-1.865 20.781-9.325 30.638-57.147 35.168-65.406 35.834-66.472 1.998-3.33 2.931-7.193 2.664-11.056-0.4-5.195-2.931-9.858-6.927-13.055-0.533-0.266-39.164-32.237-41.429-75.264v0zM946.777 595.984c-0.266 1.199-0.666 2.531-1.199 3.863 0.533-1.199 0.932-2.531 1.199-3.863v0zM947.177 591.722c0 1.199 0 2.664-0.4 4.13 0.4-1.465 0.4-2.797 0.4-4.13v0zM929.859 884.252c-40.496-7.193-75.397-1.199-103.771 17.85-35.301 23.578-50.62 61.277-56.615 82.191l-51.286 1.998c-15.985-41.695-40.496-69.936-72.999-83.923-36.899-15.985-74.065-8.792-94.313-2.531l-28.374-42.894c29.706-34.235 42.894-69.136 38.898-103.771-4.396-38.764-29.173-66.472-45.292-80.726 4.929-8.792 12.522-22.646 24.378-44.359 42.361 7.46 78.461 1.199 107.235-18.783 34.235-23.711 48.622-60.611 54.217-81.525l49.022-1.865c10.923 34.102 30.239 59.146 57.68 74.731 40.496 22.912 87.386 17.85 110.831 13.055 5.595 9.325 14.12 22.379 26.509 41.429-26.376 30.106-38.764 62.076-36.899 95.246 2.265 42.761 27.974 75.397 43.56 91.516-4.529 8.259-11.589 21.447-22.779 42.361v0z" p-id="8990"></path></svg>