<?xml version="1.0" standalone="no"?><!DOCTYPE svg PUBLIC "-//W3C//DTD SVG 1.1//EN" "http://www.w3.org/Graphics/SVG/1.1/DTD/svg11.dtd"><svg t="1539331790189" class="icon" style="" viewBox="0 0 1024 1024" version="1.1" xmlns="http://www.w3.org/2000/svg" p-id="2148" xmlns:xlink="http://www.w3.org/1999/xlink" width="32" height="32"><defs><style type="text/css"></style></defs><path d="M260.654545 67.490909v51.2h-6.981818c-18.618182 0-37.236364 0-55.854545 2.327273-46.545455 4.654545-83.781818 44.218182-86.109091 93.090909v628.363636c0 20.945455 2.327273 39.563636 11.636364 58.181818 23.272727 48.872727 62.836364 74.472727 116.363636 74.472728h546.909091c58.181818 0 104.727273-32.581818 121.018182-86.109091 4.654545-13.963636 6.981818-27.927273 6.981818-41.890909V225.745455c0-46.545455-25.6-83.781818-67.490909-97.745455-11.636364-4.654545-23.272727-4.654545-34.909091-4.654545h-48.872727V74.472727c51.2-6.981818 100.072727-6.981818 144.290909 27.927273 34.909091 27.927273 53.527273 62.836364 55.854545 107.054545v633.018182c0 55.854545-18.618182 102.4-60.509091 137.309091-32.581818 30.254545-72.145455 41.890909-116.363636 44.218182H239.709091c-76.8 0-130.327273-37.236364-162.909091-104.727273-11.636364-23.272727-13.963636-46.545455-13.963636-72.145454V225.745455C62.836364 167.563636 88.436364 123.345455 139.636364 93.090909c11.636364-13.963636 27.927273-18.618182 46.545454-20.945454 23.272727-2.327273 48.872727-2.327273 74.472727-4.654546z" p-id="2149"></path><path d="M372.363636 0h276.945455v46.545455h-116.363636v46.545454h93.090909v46.545455h-232.727273V93.090909h93.090909V46.545455h-116.363636c2.327273-16.290909 2.327273-30.254545 2.327272-46.545455zM274.618182 365.381818v-41.890909s2.327273-2.327273 4.654545-2.327273h474.763637v46.545455c-162.909091-2.327273-321.163636-2.327273-479.418182-2.327273zM274.618182 523.636364v-44.218182h477.090909v44.218182H274.618182zM749.381818 640v44.218182H272.290909v-44.218182h477.090909z" p-id="2150"></path></svg>