<?xml version="1.0" standalone="no"?><!DOCTYPE svg PUBLIC "-//W3C//DTD SVG 1.1//EN" "http://www.w3.org/Graphics/SVG/1.1/DTD/svg11.dtd"><svg t="1526284482639" class="icon" style="" viewBox="0 0 1024 1024" version="1.1" xmlns="http://www.w3.org/2000/svg" p-id="3467" xmlns:xlink="http://www.w3.org/1999/xlink" width="128" height="128"><defs><style type="text/css"></style></defs><path d="M512 0C229.230204 0 0 229.230204 0 512 0 794.769796 229.230204 1024 512 1024 794.769796 1024 1024 794.769796 1024 512 1024 229.230204 794.769796 0 512 0ZM512 953.37931C268.232934 953.37931 70.62069 755.767066 70.62069 512 70.62069 268.232934 268.232934 70.62069 512 70.62069 755.767066 70.62069 953.37931 268.232934 953.37931 512 953.37931 755.767066 755.767066 953.37931 512 953.37931ZM317.793103 512C317.793103 482.747957 294.079629 459.034483 264.827586 459.034483 235.575543 459.034483 211.862069 482.747957 211.862069 512 211.862069 541.252043 235.575543 564.965517 264.827586 564.965517 294.079629 564.965517 317.793103 541.252043 317.793103 512ZM794.482759 547.310345C813.984115 547.310345 829.793103 531.501356 829.793103 512 829.793103 492.498644 813.984115 476.689655 794.482759 476.689655L406.068966 476.689655C386.567609 476.689655 370.758621 492.498644 370.758621 512 370.758621 531.501356 386.567609 547.310345 406.068966 547.310345L794.482759 547.310345ZM317.793103 335.448276C317.793103 306.196233 294.079629 282.482759 264.827586 282.482759 235.575543 282.482759 211.862069 306.196233 211.862069 335.448276 211.862069 364.700319 235.575543 388.413793 264.827586 388.413793 294.079629 388.413793 317.793103 364.700319 317.793103 335.448276ZM794.482759 370.758621C813.984115 370.758621 829.793103 354.949632 829.793103 335.448276 829.793103 315.94692 813.984115 300.137931 794.482759 300.137931L406.068966 300.137931C386.567609 300.137931 370.758621 315.94692 370.758621 335.448276 370.758621 354.949632 386.567609 370.758621 406.068966 370.758621L794.482759 370.758621ZM317.793103 688.551724C317.793103 659.299681 294.079629 635.586207 264.827586 635.586207 235.575543 635.586207 211.862069 659.299681 211.862069 688.551724 211.862069 717.803767 235.575543 741.517241 264.827586 741.517241 294.079629 741.517241 317.793103 717.803767 317.793103 688.551724ZM794.482759 723.862069C813.984115 723.862069 829.793103 708.05308 829.793103 688.551724 829.793103 669.050368 813.984115 653.241379 794.482759 653.241379L406.068966 653.241379C386.567609 653.241379 370.758621 669.050368 370.758621 688.551724 370.758621 708.05308 386.567609 723.862069 406.068966 723.862069L794.482759 723.862069Z" p-id="3468"></path></svg>