<?xml version="1.0" standalone="no"?><!DOCTYPE svg PUBLIC "-//W3C//DTD SVG 1.1//EN" "http://www.w3.org/Graphics/SVG/1.1/DTD/svg11.dtd"><svg t="1526284445051" class="icon" style="" viewBox="0 0 1045 1024" version="1.1" xmlns="http://www.w3.org/2000/svg" p-id="2364" xmlns:xlink="http://www.w3.org/1999/xlink" width="130.625" height="128"><defs><style type="text/css"></style></defs><path d="M1031.975006 202.254269 501.464325 753.980748 308.593431 753.980748 308.593431 561.109854 841.032821 11.312084C856.115325-3.770421 880.53278-3.770421 895.615284 11.312084L1031.975006 147.671806C1047.05751 162.754309 1047.05751 187.171764 1031.975006 202.254269ZM868.304766 93.127916 385.741788 599.684033 385.741788 676.83239 462.890146 676.83239 950.159172 174.982324 868.304766 93.127916ZM540.038504 98.181134 77.148358 98.181134 77.148358 946.813068 925.780291 946.813068 925.780291 483.922922C925.780291 455.956643 933.958018 450.170516 961.924298 450.170516 989.929151 450.170516 1002.928649 455.956643 1002.928649 483.922922L1002.928649 946.813068C1002.928649 984.075724 963.042948 1023.961426 925.780291 1023.961426L77.148358 1023.961426C39.885701 1023.961426 0 984.075724 0 946.813068L0 98.181134C0 60.879903 39.885701 21.032776 77.148358 21.032776L540.038504 21.032776C568.004783 21.032776 573.79091 34.070849 573.79091 62.037129 573.79091 89.964834 568.004783 98.181134 540.038504 98.181134Z" p-id="2365"></path></svg>