<?xml version="1.0" standalone="no"?><!DOCTYPE svg PUBLIC "-//W3C//DTD SVG 1.1//EN" "http://www.w3.org/Graphics/SVG/1.1/DTD/svg11.dtd"><svg t="1526283646652" class="icon" style="" viewBox="0 0 1024 1024" version="1.1" xmlns="http://www.w3.org/2000/svg" p-id="5320" xmlns:xlink="http://www.w3.org/1999/xlink" width="128" height="128"><defs><style type="text/css"></style></defs><path d="M885.9 352l0 532.7L139.2 884.7 139.2 139l634.7 0 0-75.2L120.4 63.8c-31.1 0-56.4 25.3-56.4 56.4l0 783.3c0 31.1 25.3 56.4 56.4 56.4l784.3 0c31.1 0 56.4-25.3 56.4-56.4L961.1 352 885.9 352 885.9 352zM885.9 352" p-id="5321"></path><path d="M773.6 541.7c8.3-8.3 12.8-19.3 12.8-30.9 0-11.7-4.6-22.7-12.8-30.9-8.3-8.3-19.3-12.8-30.9-12.8L555 467.1 555 279.3c0-11.7-4.6-22.7-12.8-30.9-8.3-8.3-19.3-12.8-30.9-12.8-11.7 0-22.7 4.6-30.9 12.8-8.3 8.3-12.8 19.3-12.8 30.9L467.6 467.1 279.7 467.1c-11.7 0-22.7 4.6-30.9 12.8-8.3 8.3-12.8 19.3-12.8 30.9 0 11.7 4.6 22.7 12.8 30.9 8.3 8.3 19.3 12.8 30.9 12.8l187.8 0 0 187.8c0 24.1 19.6 43.8 43.8 43.8 11.7 0 22.7-4.6 30.9-12.8 8.3-8.3 12.8-19.3 12.8-30.9L555 554.6l187.8 0C754.4 554.6 765.4 550 773.6 541.7L773.6 541.7zM773.6 541.7" p-id="5322"></path></svg>