<?xml version="1.0" standalone="no"?>
<!DOCTYPE svg PUBLIC "-//W3C//DTD SVG 20010904//EN"
 "http://www.w3.org/TR/2001/REC-SVG-20010904/DTD/svg10.dtd">
<svg version="1.0" xmlns="http://www.w3.org/2000/svg"
 width="96.000000pt" height="96.000000pt" viewBox="0 0 96.000000 96.000000"
 preserveAspectRatio="xMidYMid meet">
<metadata>
Created by potrace 1.16, written by Peter Selinger 2001-2019
</metadata>
<g transform="translate(0.000000,96.000000) scale(0.100000,-0.100000)"
fill="#000000" stroke="none">
<path d="M385 875 c-37 -36 -35 -98 5 -135 18 -17 30 -38 30 -53 0 -24 -3 -25
-72 -29 -89 -5 -108 3 -108 43 0 72 -102 108 -155 54 -35 -34 -35 -96 1 -132
22 -22 32 -25 74 -21 77 8 80 3 80 -122 0 -125 -3 -130 -80 -122 -42 4 -52 1
-74 -21 -36 -36 -36 -98 -1 -132 53 -54 155 -18 155 54 0 40 19 48 108 43 71
-4 72 -4 72 -31 0 -19 -9 -34 -30 -49 -26 -19 -30 -29 -30 -68 0 -61 32 -94
90 -94 57 0 90 34 90 91 0 33 -6 47 -30 69 -18 17 -30 38 -30 53 0 24 3 25 73
29 88 5 107 -3 107 -43 0 -72 102 -108 155 -54 35 34 35 96 -1 132 -22 22 -32
25 -74 21 -77 -8 -80 -3 -80 122 0 125 3 130 80 122 42 -4 52 -1 74 21 36 36
36 98 1 132 -53 54 -155 18 -155 -54 0 -40 -19 -48 -107 -43 -70 4 -73 5 -73
29 0 15 12 36 30 53 24 22 30 36 30 69 0 57 -33 91 -90 91 -30 0 -47 -6 -65
-25z m199 -291 c23 -22 23 -186 0 -208 -23 -23 -245 -23 -268 0 -23 22 -23
186 0 208 23 23 245 23 268 0z"/>
</g>
</svg>
