<?xml version="1.0" standalone="no"?><!DOCTYPE svg PUBLIC "-//W3C//DTD SVG 1.1//EN" "http://www.w3.org/Graphics/SVG/1.1/DTD/svg11.dtd"><svg t="1526284415679" class="icon" style="" viewBox="0 0 1024 1024" version="1.1" xmlns="http://www.w3.org/2000/svg" p-id="1677" xmlns:xlink="http://www.w3.org/1999/xlink" width="128" height="128"><defs><style type="text/css"></style></defs><path d="M896 256v576a128 128 0 0 1-128 128H256a128 128 0 0 1-128-128V256H64V192h192V128a64 64 0 0 1 64-64h384a64 64 0 0 1 64 64v64h192v64h-64z m-192-128H320v64h384V128z m128 128H192v576a64 64 0 0 0 64 64h512a64 64 0 0 0 64-64V256zM576 384h64v384H576V384zM384 384h64v384H384V384z" p-id="1678"></path></svg>