<?xml version="1.0" standalone="no"?><!DOCTYPE svg PUBLIC "-//W3C//DTD SVG 1.1//EN" "http://www.w3.org/Graphics/SVG/1.1/DTD/svg11.dtd"><svg t="1526283565552" class="icon" style="" viewBox="0 0 1024 1024" version="1.1" xmlns="http://www.w3.org/2000/svg" p-id="4609" xmlns:xlink="http://www.w3.org/1999/xlink" width="128" height="128"><defs><style type="text/css"></style></defs><path d="M310.857143 914.285714h-182.857143a18.285714 18.285714 0 0 1-18.285714-18.285714v-768a18.285714 18.285714 0 0 1 18.285714-18.285714h182.857143a18.285714 18.285714 0 0 1 18.285714 18.285714v768a18.285714 18.285714 0 0 1-18.285714 18.285714zM146.285714 877.714286h146.285715V146.285714H146.285714zM896 329.142857h-475.428571a18.285714 18.285714 0 0 1-18.285715-18.285714v-182.857143a18.285714 18.285714 0 0 1 18.285715-18.285714h475.428571a18.285714 18.285714 0 0 1 18.285714 18.285714v182.857143a18.285714 18.285714 0 0 1-18.285714 18.285714zM438.857143 292.571429h438.857143V146.285714H438.857143z" p-id="4610"></path><path d="M896 621.714286h-475.428571a18.285714 18.285714 0 0 1-18.285715-18.285715v-182.857142a18.285714 18.285714 0 0 1 18.285715-18.285715h475.428571a18.285714 18.285714 0 0 1 18.285714 18.285715v182.857142a18.285714 18.285714 0 0 1-18.285714 18.285715zM438.857143 585.142857h438.857143v-146.285714H438.857143zM896 914.285714h-475.428571a18.285714 18.285714 0 0 1-18.285715-18.285714v-182.857143a18.285714 18.285714 0 0 1 18.285715-18.285714h475.428571a18.285714 18.285714 0 0 1 18.285714 18.285714v182.857143a18.285714 18.285714 0 0 1-18.285714 18.285714zM438.857143 877.714286h438.857143v-146.285715H438.857143z" p-id="4611"></path></svg>