<?xml version="1.0" standalone="no"?><!DOCTYPE svg PUBLIC "-//W3C//DTD SVG 1.1//EN" "http://www.w3.org/Graphics/SVG/1.1/DTD/svg11.dtd"><svg t="1526283372703" class="icon" style="" viewBox="0 0 1024 1024" version="1.1" xmlns="http://www.w3.org/2000/svg" p-id="2234" xmlns:xlink="http://www.w3.org/1999/xlink" width="128" height="128"><defs><style type="text/css"></style></defs><path d="M919.096192 1.803429 106.384339 1.803429c-57.74173 0-104.670881 46.928152-104.670881 104.670881l0 812.855807c0 57.74173 46.928152 104.669882 104.670881 104.669882l812.78383 0c57.74173 0 104.669882-46.928152 104.669882-104.669882L1023.838051 106.402334C1023.768073 48.659604 976.836923 1.803429 919.096192 1.803429zM826.535479 292.242533l-2.161316 1.153635-0.288909 2.450225C801.808303 449.608741 667.944658 565.597042 512.739766 565.597042c-155.202893 0-289.069537-115.988301-311.344489-269.750649l-0.359886-2.450225-2.163316-1.153635c-15.427119-9.155103-24.654199-24.654199-24.654199-41.666816 0-26.96047 21.915066-48.875535 48.947513-48.875535 26.96047 0 48.875535 21.915066 48.875535 48.875535 0 14.201507-6.41597 27.46531-18.166252 37.196231l-2.30727 1.80243 0.50484 2.884087c20.5445 128.963195 130.189807 222.533589 260.667523 222.533589 130.478716 0 240.123024-93.641371 260.667523-222.533589l0.50584-2.81211-2.235293-1.80243c-11.822259-9.803898-18.166252-22.995724-18.166252-37.197231 0-26.96047 21.915066-48.875535 48.875535-48.875535l0 0 0 0 0 0c27.032447 0 48.947513 21.914066 48.947513 48.875535C851.261655 267.589333 842.034575 283.088429 826.535479 292.242533z" p-id="2235"></path></svg>