<?xml version="1.0" standalone="no"?><!DOCTYPE svg PUBLIC "-//W3C//DTD SVG 1.1//EN" "http://www.w3.org/Graphics/SVG/1.1/DTD/svg11.dtd"><svg t="1526284607045" class="icon" style="" viewBox="0 0 1024 1024" version="1.1" xmlns="http://www.w3.org/2000/svg" p-id="4194" xmlns:xlink="http://www.w3.org/1999/xlink" width="128" height="128"><defs><style type="text/css"></style></defs><path d="M490.479359 397.322168c0 52.616358-42.657542 95.2739-95.274924 95.2739L159.661861 492.596068c-52.617381 0-95.2739-42.658565-95.2739-95.2739L64.387961 161.779593c0-52.617381 42.657542-95.274924 95.2739-95.274924L395.204435 66.50467c52.617381 0 95.274924 42.657542 95.274924 95.274924L490.479359 397.322168zM435.500187 161.779593c0-22.255887-18.040888-40.295751-40.295751-40.295751L159.661861 121.483842c-22.254863 0-40.294728 18.039865-40.294728 40.295751L119.367133 397.322168c0 22.254863 18.039865 40.294728 40.294728 40.294728L395.204435 437.616896c22.254863 0 40.295751-18.039865 40.295751-40.294728L435.500187 161.779593z" p-id="4195"></path><path d="M174.346305 286.423405c-7.597025 0-13.745049-6.148024-13.745049-13.746072l0-24.765033c0-38.066991 25.39539-71.449285 60.321854-71.449285l85.637426 0c7.583722 0 13.745049 6.148024 13.745049 13.745049 0 7.597025-6.161327 13.745049-13.745049 13.745049l-85.637426 0c-21.435195 0-32.831756 23.63735-32.831756 43.959188l0 24.765033C188.091354 280.275381 181.931051 286.423405 174.346305 286.423405z" p-id="4196"></path><path d="M169.112094 333.564052c-3.583618 0-7.154957-1.51654-9.758248-3.986801-2.482541-2.604314-3.986801-6.187933-3.986801-9.759271 0-3.570315 1.503237-7.140631 3.986801-9.758248 5.221932-5.087878 14.282285-5.087878 19.516496 0 2.469238 2.617617 3.986801 6.187933 3.986801 9.758248 0 3.570315-1.51654 7.154957-3.986801 9.624195C176.252725 332.047512 172.682409 333.564052 169.112094 333.564052z" p-id="4197"></path><path d="M957.806927 397.322168c0 52.616358-42.659589 95.2739-95.275947 95.2739L626.989429 492.596068c-52.618405 0-95.274924-42.658565-95.274924-95.2739L531.714506 161.779593c0-52.617381 42.657542-95.274924 95.274924-95.274924l235.541551 0c52.617381 0 95.275947 42.657542 95.275947 95.274924L957.806927 397.322168zM902.826731 161.779593c0-22.255887-18.039865-40.295751-40.295751-40.295751L626.989429 121.483842c-22.254863 0-40.295751 18.039865-40.295751 40.295751L586.693678 397.322168c0 22.254863 18.040888 40.294728 40.295751 40.294728l235.541551 0c22.255887 0 40.295751-18.039865 40.295751-40.294728L902.826731 161.779593z" p-id="4198"></path><path d="M490.479359 864.646666c0 52.617381-42.657542 95.274924-95.274924 95.274924L159.661861 959.921589c-52.617381 0-95.2739-42.658565-95.2739-95.274924L64.387961 629.106138c0-52.617381 42.657542-95.2739 95.2739-95.2739L395.204435 533.832238c52.617381 0 95.274924 42.657542 95.274924 95.2739L490.479359 864.646666zM435.500187 629.106138c0-22.254863-18.040888-40.295751-40.295751-40.295751L159.661861 588.810387c-22.254863 0-40.294728 18.040888-40.294728 40.295751l0 235.541551c0 22.254863 18.039865 40.296775 40.294728 40.296775L395.204435 904.944464c22.254863 0 40.295751-18.041912 40.295751-40.296775L435.500187 629.106138z" p-id="4199"></path><path d="M957.806927 864.646666c0 52.617381-42.659589 95.274924-95.275947 95.274924L626.989429 959.921589c-52.618405 0-95.274924-42.658565-95.274924-95.274924L531.714506 629.106138c0-52.617381 42.657542-95.2739 95.274924-95.2739l235.541551 0c52.617381 0 95.275947 42.657542 95.275947 95.2739L957.806927 864.646666zM902.826731 629.106138c0-22.254863-18.039865-40.295751-40.295751-40.295751L626.989429 588.810387c-22.254863 0-40.295751 18.040888-40.295751 40.295751l0 235.541551c0 22.254863 18.040888 40.296775 40.295751 40.296775l235.541551 0c22.255887 0 40.295751-18.041912 40.295751-40.296775L902.826731 629.106138z" p-id="4200"></path></svg>