<?xml version="1.0" standalone="no"?><!DOCTYPE svg PUBLIC "-//W3C//DTD SVG 1.1//EN" "http://www.w3.org/Graphics/SVG/1.1/DTD/svg11.dtd"><svg t="1541582717560" class="icon" style="" viewBox="0 0 1024 1024" version="1.1" xmlns="http://www.w3.org/2000/svg" p-id="6519" xmlns:xlink="http://www.w3.org/1999/xlink" width="24" height="24"><defs><style type="text/css"></style></defs><path d="M868.8 98.2H157.3c-32.7 0-59.3 26.5-59.3 59.3V869c0 32.7 26.5 59.3 59.3 59.3h711.5c32.7 0 59.3-26.5 59.3-59.3V157.5c0-32.7-26.6-59.3-59.3-59.3z m-18.5 704.1c0 26.6-21.6 48.2-48.2 48.2H224c-26.6 0-48.2-21.6-48.2-48.2V224.2c0-26.6 21.6-48.2 48.2-48.2h578.1c26.6 0 48.2 21.6 48.2 48.2v578.1z" p-id="6520"></path><path d="M275.9 631.8h118.6v177.9H275.9zM453.7 631.8h118.6v177.9H453.7zM631.6 631.8h118.6v177.9H631.6zM216.6 216.8h592.9V454H216.6z" p-id="6521"></path></svg>