<?xml version="1.0" standalone="no"?><!DOCTYPE svg PUBLIC "-//W3C//DTD SVG 1.1//EN" "http://www.w3.org/Graphics/SVG/1.1/DTD/svg11.dtd"><svg t="1541582825105" class="icon" style="" viewBox="0 0 1024 1024" version="1.1" xmlns="http://www.w3.org/2000/svg" p-id="7322" xmlns:xlink="http://www.w3.org/1999/xlink" width="24" height="24"><defs><style type="text/css"></style></defs><path d="M707.296 274.272c0-44.512-7.456-79.2-27.296-98.976-19.744-22.208-51.936-37.088-94.016-37.088h-79.136v269.728h74.208c42.048 0 76.736-12.384 96.544-37.088 19.776-19.84 29.696-54.496 29.696-96.576z" p-id="7323"></path><path d="M588.512 952.288H130.688c-42.048 0-79.2-32.16-79.2-74.208V516.8h742.368c24.704 0 49.472 2.432 49.472 4.96V135.744c0-69.344-51.936-123.744-118.784-123.744H130.688C61.44 12 2.016 68.896 2.016 135.744v742.304c0 69.312 59.424 123.712 128.672 123.712h512.256c-19.84-12.32-37.152-29.632-54.432-49.472z m-121.28-848.704h123.744c51.968 0 94.048 17.28 121.184 49.504 22.336 29.664 37.152 69.216 37.152 121.216 0 51.968-14.816 94.048-42.016 123.776-29.728 32.128-69.28 49.472-123.712 49.472h-118.816V103.584h2.464z m-235.104 0h39.584l136.096 341.472H365.76l-37.152-99.008H175.232l-37.12 99.008H96.032L232.128 103.584z" p-id="7324"></path><path d="M254.432 155.52L190.048 313.888h123.776L254.432 155.52z m259.808 492.416H118.304a24.768 24.768 0 0 0 0 49.504H514.24c12.352 0 24.768-12.352 24.768-24.736 0-12.416-12.416-24.768-24.768-24.768z m0 143.52H118.304a24.8 24.8 0 0 0-24.736 24.736c0 14.88 9.888 24.736 24.736 24.736H514.24a24.832 24.832 0 0 0 24.768-24.736c0-12.32-12.416-24.736-24.768-24.736z m507.296-37.12l-12.448-61.856c-4.928-17.376-22.24-32.224-39.52-34.624l-24.736-2.528c-2.464 0-2.464 0-4.896-2.432v-9.92l2.432-24.768c2.464-19.776-7.392-39.552-24.768-47.008L860.704 544h-2.432c-4.96-2.464-9.92-2.464-14.88-2.464-12.352 0-24.736 4.928-32.16 12.352l-17.312 17.312-4.928 4.928c-2.496 0-2.496-2.4-4.96-4.928l-17.376-17.312c-7.392-7.392-19.744-12.352-32.096-12.352-9.952 0-17.376 2.464-19.808 4.928l-56.896 27.264c-14.848 9.888-27.264 27.2-24.736 44.48l2.432 27.264v4.96s-4.928 2.464-7.392 2.464l-22.272 2.432c-17.28 2.528-34.656 14.88-39.584 34.688l-12.352 61.92c-4.96 17.248 2.464 37.024 19.776 49.44l19.808 12.416 7.424 7.392c0 2.464 0 2.464-2.528 4.928l-14.784 22.272c-9.952 14.784-9.952 37.088 2.4 51.936l39.648 51.936c9.856 9.92 22.272 17.376 34.624 17.376 4.928 0 9.888 0 14.848-2.496l24.704-7.424h7.456c0 2.464 2.432 2.464 2.432 4.96l7.392 22.24c4.928 19.808 24.736 29.728 42.048 29.728h61.92c17.344 0 34.592-12.416 39.552-29.728l7.424-22.24c0-2.496 2.464-2.496 2.464-4.96h7.424l19.808 7.424c4.896 2.496 12.352 2.496 14.848 2.496 14.848 0 29.696-7.456 37.056-17.376l39.616-49.408c9.888-12.416 12.384-34.752 2.464-51.968l-12.384-19.808c0-2.464-2.432-4.96-2.432-7.424l4.96-4.96 22.176-12.416c12.448-14.816 19.904-37.088 17.44-51.936z m-42.112 7.488l-22.24 14.816c-4.928 4.96-19.808 17.312-22.24 29.664-2.496 12.416 2.432 29.728 9.888 37.152l14.816 22.272-37.024 52h-2.56l-24.704-7.52c-17.312-4.864-34.656 0-39.616 2.56-9.888 4.96-19.776 19.776-24.672 29.664l-7.424 22.272-2.464 2.464h-64.352l-9.92-19.776c-2.432-12.352-12.352-27.264-22.272-32.16-7.424-5.024-17.28-5.024-19.808-5.024-7.36 0-14.816 2.56-24.736 5.024l-22.208 7.456h-4.992l-37.088-49.6v-4.96l12.384-19.712c7.392-9.952 12.384-24.736 9.952-39.648-2.528-14.816-17.344-27.168-24.768-32.128l-22.24-12.416s-2.464-2.4 0-2.4l14.816-64.352 22.272-2.496c12.384 0 29.728-7.424 37.12-17.312 7.392-9.856 12.384-24.736 9.92-37.152l-2.496-24.672c0-2.528 2.496-4.96 2.496-4.96l54.432-24.736h4.96l17.312 17.312c9.92 7.424 22.24 14.816 34.624 14.816 12.416 0 29.696-7.36 34.656-17.28l17.344-17.312h2.432l56.928 24.736 2.432 2.464-2.432 24.672c0 4.96 0 24.736 9.888 37.184 4.96 7.424 17.344 14.816 34.656 17.312l22.24 2.464 2.496 2.464 12.352 59.36v7.488h-0.16z" p-id="7325"></path><path d="M788.928 665.248c-61.888 0-113.856 51.936-113.856 113.888 0 61.856 51.968 113.856 113.856 113.856 59.36 0 111.328-52 113.792-113.856 0-61.952-51.936-113.888-113.792-113.888z m0 183.168c-39.616 0-71.808-32.192-71.808-71.776s32.192-71.712 71.808-71.712c37.024 0 69.28 32.128 71.712 71.712-2.432 42.048-34.656 71.776-71.712 71.776z" p-id="7326"></path></svg>