<?xml version="1.0" standalone="no"?><!DOCTYPE svg PUBLIC "-//W3C//DTD SVG 1.1//EN" "http://www.w3.org/Graphics/SVG/1.1/DTD/svg11.dtd"><svg t="1541582872263" class="icon" style="" viewBox="0 0 1024 1024" version="1.1" xmlns="http://www.w3.org/2000/svg" p-id="8264" xmlns:xlink="http://www.w3.org/1999/xlink" width="24" height="24"><defs><style type="text/css"></style></defs><path d="M695.466667 535.466667h-153.6v-78.933334h147.2v-59.733333h-130.133334l108.8-108.8-38.4-38.4-117.333333 117.333333-117.333333-117.333333-38.4 38.4 108.8 108.8h-130.133334v59.733333h147.2v78.933334h-153.6V597.333333h153.6v177.066667h59.733334V597.333333h153.6z" fill="" p-id="8265"></path><path d="M870.4 936.533333H153.6c-53.333333 0-96-38.4-96-87.466666V661.333333c0-14.933333 12.8-25.6 25.6-25.6 68.266667 0 121.6-55.466667 121.6-121.6 0-68.266667-55.466667-121.6-121.6-121.6-14.933333 0-25.6-12.8-25.6-25.6V172.8c0-49.066667 42.666667-87.466667 96-87.466667h716.8c53.333333 0 96 38.4 96 87.466667V362.666667c0 14.933333-12.8 25.6-25.6 25.6-68.266667 0-121.6 55.466667-121.6 121.6 0 68.266667 55.466667 121.6 121.6 121.6 14.933333 0 25.6 12.8 25.6 25.6v189.866666c0 53.333333-42.666667 89.6-96 89.6zM110.933333 684.8v166.4c0 19.2 19.2 34.133333 42.666667 34.133333h716.8c23.466667 0 42.666667-14.933333 42.666667-34.133333v-166.4c-83.2-12.8-149.333333-85.333333-149.333334-172.8s64-160 149.333334-172.8V172.8c0-19.2-19.2-34.133333-42.666667-34.133333H153.6c-23.466667 0-42.666667 14.933333-42.666667 34.133333v166.4c83.2 12.8 149.333333 85.333333 149.333334 172.8s-64 160-149.333334 172.8z" fill="" p-id="8266"></path></svg>