<?xml version="1.0" standalone="no"?><!DOCTYPE svg PUBLIC "-//W3C//DTD SVG 1.1//EN" "http://www.w3.org/Graphics/SVG/1.1/DTD/svg11.dtd"><svg t="1542099977341" class="icon" style="" viewBox="0 0 1040 1024" version="1.1" xmlns="http://www.w3.org/2000/svg" p-id="1384" xmlns:xlink="http://www.w3.org/1999/xlink" width="54.84375" height="54"><defs><style type="text/css"></style></defs><path d="M984.104361 326.757019C933.414889 208.820979 838.555427 114.26851 720.236672 63.756069c31.996738-25.119097 72.263837-40.220027 116.151393-40.220027 103.862509 0 188.064236 83.923388 188.064236 187.452299C1024.453325 254.725472 1009.297137 294.866704 984.104361 326.757019zM976.434681 534.080901c0 122.913401-48.40443 234.320747-126.857223 317.182966l64.928778 64.711837c8.587586 8.563026 13.906731 20.391423 13.906731 33.464159 0 26.137287-21.258163 47.327912-47.487547 47.327912-13.106506 0-24.977881-5.300726-33.564443-13.863752l-69.749574-69.51319c-75.249845 52.398394-166.623925 83.376942-265.383206 83.376942-98.56997 0-189.785437-30.846542-264.950348-83.051531l-69.257364 69.029166c-8.696056 8.67252-20.700461 14.022365-33.957393 14.022365-26.520003 0-48.02069-21.431102-48.02069-47.868217 0-13.214976 5.376451-25.178449 14.06432-33.841759l64.402799-64.184835c-78.218456-82.829474-126.489856-194.070021-126.489856-316.792063 0-255.531837 207.833489-462.687898 464.207507-462.687898C768.608356 71.393004 976.434681 278.549064 976.434681 534.080901zM512.228197 167.119205c-203.332988 0-368.164081 164.305113-368.164081 366.961696 0 202.663746 164.832116 366.961696 368.164081 366.961696 203.323778 0 368.163057-164.298973 368.163057-366.961696C880.391255 331.423295 715.551976 167.119205 512.228197 167.119205zM704.314027 581.944002 512.228197 581.944002c-26.520003 0-48.021713-21.425985-48.021713-47.862078L464.206484 278.808984c0-26.435069 21.502733-47.863101 48.021713-47.863101 26.50977 0 48.019667 21.428032 48.019667 47.863101l0 207.40984L704.314027 486.218824c26.510794 0 48.02069 21.424962 48.02069 47.862078C752.334717 560.518017 730.824821 581.944002 704.314027 581.944002zM41.209564 333.240687c-25.736151-32.570813-41.210587-73.572646-41.210587-118.251218C0 109.25124 85.995583 23.536043 192.084807 23.536043c44.819788 0 85.962837 15.425318 118.635981 41.078581C189.876512 116.213815 92.974531 212.787314 41.209564 333.240687z" p-id="1385"></path></svg>