<?xml version="1.0" standalone="no"?><!DOCTYPE svg PUBLIC "-//W3C//DTD SVG 1.1//EN" "http://www.w3.org/Graphics/SVG/1.1/DTD/svg11.dtd"><svg t="1541582554734" class="icon" style="" viewBox="0 0 1024 1024" version="1.1" xmlns="http://www.w3.org/2000/svg" p-id="5148" xmlns:xlink="http://www.w3.org/1999/xlink" width="24" height="24"><defs><style type="text/css"></style></defs><path d="M987.04 533.208c-15.951-18.618-12.415-26.62 0.947-42.956 69.21-84.716 31.696-201.788-74.55-229.604-26.705-6.985-38.047-14.813-28.855-37.193C887.36 116.06 783.764 43.795 682.875 81.34c-23.697 8.815-32.08 6.967-46.299-13.836-61.223-89.51-188.549-89.59-249.31 0.046-14.453 21.302-23.543 22.162-46.413 13.935-103.4-37.228-208.124 36.36-201.084 142.258 1.774 26.523-6.729 30.735-29.426 36.824C4.276 289.07-34.412 407.945 35.925 490.36c15.47 18.123 13.656 25.996-0.449 43.293-70.264 86.13-30.09 202.613 79.444 230.943 20.223 5.23 26.623 9.243 25.28 31.722-6.748 112.214 95.964 184.444 205.302 144.714 20.503-7.474 27.514-5.58 39.599 12.37 63.32 94.021 190.484 93.64 253.87-0.987 12.649-18.874 19.977-18.476 39.684-11.11 108.264 40.473 214.39-35.934 204.702-147.362-1.786-20.577 3.608-23.863 22.703-28.612 112.563-27.945 154.277-146.564 80.98-232.123zM214.635 718.206l-58.778-168.943c-5.088-14.651 0.203-24.952 15.841-30.861 8.91-1.167 16.832 0.137 23.728 3.87l145.283 92.081 1.251-0.417-39.036-112.224c-5.094-14.652 0.198-24.953 15.842-30.879 15.358-4.114 25.992 1.052 31.941 15.43l58.743 168.945c4.003 14.153-1.552 23.656-16.633 28.532-8.383 2.727-16.022 2.202-22.93-1.595l-144.888-90.879-1.251 0.4L262.37 702.74c3.984 14.16-1.557 23.657-16.634 28.557-15.906 5.165-26.288 0.798-31.1-13.09zM436.72 645.1l-56.748-163.14c-5.638-16.216-0.63-27.26 15.033-33.188l80.433-26.002c13.675-3.588 23.494 0.56 29.48 12.35 3.127 14.432-2 23.82-15.393 28.157l-56.562 18.286 14.895 42.813 52.794-17.054c14.799-3.062 25.146 1.305 31.133 13.102 2.858 13.662-2.662 23.165-16.634 28.533l-52.794 17.077 15.694 45.113 59.09-19.083c14.518-3.824 24.338 0.319 29.479 12.34 3.127 14.426-2.002 23.814-15.393 28.152l-82.95 26.829c-15.391 4.132-25.906-0.652-31.557-14.285z m178.89-56.54l-97.827-148.59c-2.763-2.52-4.381-5.848-4.878-10.025-3.194-11.831 2.068-20.803 15.788-26.955 13.392-4.321 24.753 0.156 34.047 13.449l69.852 116.436 1.276-0.415-3.609-143.006c0.431-12.131 6.813-20.647 19.114-25.476 12.001-3.027 22.386 0.063 31.169 9.214l86.55 116.21 1.277-0.409-15.823-133.895c-3.146-14.442 2.696-24.483 17.507-30.127 13.92-2.773 23.745 1.322 29.461 12.34 1.361 3.887 2.115 7.504 2.367 10.838l16.135 175.004c-1.042 15.783-9.107 26.13-24.188 30.97-16.785 5.437-29.93 2.41-39.535-9.081l-77.538-102.363 2.133 126.764c-1.306 15.004-9.49 24.935-24.59 29.811-17.62 5.66-30.532 2.118-38.688-10.694z m0 0" fill="" p-id="5149"></path></svg>