<?xml version="1.0" standalone="no"?><!DOCTYPE svg PUBLIC "-//W3C//DTD SVG 1.1//EN" "http://www.w3.org/Graphics/SVG/1.1/DTD/svg11.dtd"><svg t="1541582420630" class="icon" style="" viewBox="0 0 1031 1024" version="1.1" xmlns="http://www.w3.org/2000/svg" p-id="3681" xmlns:xlink="http://www.w3.org/1999/xlink" width="24.1640625" height="24"><defs><style type="text/css"></style></defs><path d="M320 275.2C320 275.2 320 275.2 320 275.2l0 467.2c0 0 0 0 0 0l147.2-128C480 614.4 499.2 608 512 608s32 6.4 44.8 12.8l147.2 128c0 0 0 0 0 0L704 281.6c0 0 0 0 0 0L320 281.6z" p-id="3682"></path><path d="M889.6 0 134.4 0C57.6 0 0 57.6 0 134.4l0 761.6C0 966.4 57.6 1024 134.4 1024l761.6 0c70.4 0 134.4-57.6 134.4-134.4L1030.4 134.4C1024 57.6 966.4 0 889.6 0zM768 742.4c0 38.4-32 64-64 64-12.8 0-32-6.4-44.8-19.2L512 672l-147.2 121.6c-25.6 19.2-64 19.2-89.6 0C262.4 780.8 256 761.6 256 742.4L256 281.6c0-38.4 32-64 64-64L704 217.6c38.4 0 64 32 64 64L768 742.4z" p-id="3683"></path></svg>