<?xml version="1.0" standalone="no"?><!DOCTYPE svg PUBLIC "-//W3C//DTD SVG 1.1//EN" "http://www.w3.org/Graphics/SVG/1.1/DTD/svg11.dtd"><svg t="1542700674974" class="icon" style="" viewBox="0 0 1024 1024" version="1.1" xmlns="http://www.w3.org/2000/svg" p-id="2435" xmlns:xlink="http://www.w3.org/1999/xlink" width="54" height="54"><defs><style type="text/css"></style></defs><path d="M910.08512 255.34976c-0.9216 37.56032-33.67936 64.52736-62.77632 83.2256-49.06496 31.52896-107.008 48.10752-163.55328 60.01152-138.17344 29.09696-290.7648 23.57248-425.43104-19.46624-58.35776-18.65216-189.14816-75.15136-141.824-157.70624 21.99552-38.36928 69.44256-61.7984 108.63616-77.824 61.00992-24.93952 127.1552-37.65248 192.49152-44.0832 113.5104-11.17184 231.46496-2.74432 340.38784 32.07168 53.44256 17.08032 150.37952 55.00928 152.06912 123.77088 0.80896 32.95744 52.00896 33.03936 51.2 0-2.37568-96.73216-111.27296-147.01568-189.65504-173.14304-133.31456-44.43648-282.62912-47.11424-420.352-25.3952-97.09568 15.3088-223.18592 49.46432-278.9888 138.76224-50.43712 80.71168 17.99168 157.66016 86.2976 196.29056 68.02944 38.47168 147.73248 56.832 224.57344 66.6368 93.83424 11.97568 188.50304 10.11712 281.91232-4.61312 73.80992-11.63776 149.60128-33.51552 212.93056-74.21952 43.58656-28.01152 81.95584-70.0416 83.28704-124.31872 0.80384-33.03936-50.39616-32.95744-51.20512 0z" p-id="2436"></path><path d="M910.08512 423.22944c-1.4336 56.79616-74.50624 91.82208-118.88128 110.01344-89.00096 36.52096-187.52 48.3584-283.02848 48.80896-95.91296 0.45568-193.50528-13.50656-283.03872-48.80896-44.45696-17.52064-117.4528-53.66784-118.88128-110.01344-0.83456-32.95744-52.03456-33.03936-51.2 0 1.8688 73.86624 71.37792 120.97536 131.85024 148.91008 99.38432 45.91104 212.75136 60.60032 321.26976 61.11744 109.08672 0.51712 221.13792-16.65536 321.25952-61.11744 60.65664-26.93632 130.00192-75.7504 131.85024-148.91008 0.83456-33.03936-50.36544-32.95232-51.2 0z" p-id="2437"></path><path d="M910.08512 594.62656c-1.4336 56.80128-74.50624 91.8272-118.88128 110.0288-89.00096 36.52096-187.52 48.3584-283.02848 48.80896-95.91296 0.45568-193.50528-13.50656-283.03872-48.80896-44.45696-17.53088-117.4528-53.67808-118.88128-110.0288-0.83456-32.95744-52.03456-33.03424-51.2 0 1.8688 73.87136 71.37792 120.9856 131.85024 148.92544 99.38432 45.91104 212.75136 60.60032 321.26976 61.11744 109.08672 0.51712 221.13792-16.65536 321.25952-61.11744 60.65664-26.93632 130.00192-75.76576 131.85024-148.92544 0.83456-33.03424-50.36544-32.95744-51.2 0z" p-id="2438"></path><path d="M910.08512 776.06912c-1.4336 56.80128-74.50624 91.8272-118.88128 110.0288-89.00096 36.52096-187.52 48.3584-283.02848 48.80896-95.91296 0.45568-193.50528-13.50656-283.03872-48.80896-44.45696-17.53088-117.4528-53.67808-118.88128-110.0288-0.83456-32.95744-52.03456-33.03424-51.2 0 1.8688 73.87136 71.37792 120.9856 131.85024 148.92032 99.38432 45.91616 212.75136 60.60544 321.26976 61.12256 109.08672 0.51712 221.13792-16.65536 321.25952-61.12256 60.65664-26.9312 130.00192-75.76064 131.85024-148.92032 0.83456-33.03424-50.36544-32.95232-51.2 0zM386.23744 151.69024l102.20032 102.1952c9.86624 9.86112 26.3424 9.86112 36.20352 0l103.49568-103.49056c23.36768-23.36256-12.83584-59.5712-36.1984-36.20352L488.43776 217.68192h36.20352l-102.20032-102.1952c-23.36768-23.36768-59.56608 12.83584-36.20352 36.20352z" p-id="2439"></path><path d="M388.992 261.38624h235.45344c33.01376 0 33.01376-51.2 0-51.2H388.992c-33.01888 0-33.01888 51.2 0 51.2zM388.992 335.40608h235.45344c33.01376 0 33.01376-51.2 0-51.2H388.992c-33.01888 0-33.01888 51.2 0 51.2z" p-id="2440"></path><path d="M481.11616 234.49088V375.5008c0 33.01888 51.20512 33.01888 51.20512 0V234.49088c0-33.01376-51.20512-33.01376-51.20512 0z" p-id="2441"></path></svg>