<?xml version="1.0" standalone="no"?><!DOCTYPE svg PUBLIC "-//W3C//DTD SVG 1.1//EN" "http://www.w3.org/Graphics/SVG/1.1/DTD/svg11.dtd"><svg t="1542700646737" class="icon" style="" viewBox="0 0 1024 1024" version="1.1" xmlns="http://www.w3.org/2000/svg" p-id="2301" xmlns:xlink="http://www.w3.org/1999/xlink" width="54" height="54"><defs><style type="text/css"></style></defs><path d="M983.696 422.704A480 480 0 1 0 40.72 602.72a469.456 469.456 0 0 0 69.44 172.688 36.4 36.4 0 1 0 60.672-40.24 408.16 408.16 0 0 1 3.664-452.224 400.832 400.832 0 0 1 260.24-171.2 407.136 407.136 0 1 1-112.576 760.288 36.8 36.8 0 0 0-34.352 65.12 477.024 477.024 0 0 0 223.68 54.88 467.984 467.984 0 0 0 89.92-8.784A481.424 481.424 0 0 0 983.712 422.72z" p-id="2302"></path><path d="M471.712 579.84h-130.768a36.944 36.944 0 0 0 0 73.888h130.768v116.8a36.944 36.944 0 1 0 73.888 0v-116.8h130.768a36.944 36.944 0 1 0 0-73.888H545.6v-71.664a22.784 22.784 0 0 0-0.736-7.392h131.504a36.944 36.944 0 1 0 0-73.888H341.68a36.944 36.944 0 1 0 0 73.888h131.504a25.152 25.152 0 0 0-0.736 7.392v71.664z" p-id="2303"></path><path d="M405.968 383.312a37.104 37.104 0 0 0 52.464-52.464l-79.792-79.792a37.104 37.104 0 1 0-52.464 52.464z" p-id="2304"></path><path d="M602.48 383.312l79.792-79.792a37.088 37.088 0 1 0-52.448-52.464l-79.792 79.792a36.576 36.576 0 0 0 0 52.464 37.936 37.936 0 0 0 52.448 0z" p-id="2305"></path></svg>