<?xml version="1.0" standalone="no"?><!DOCTYPE svg PUBLIC "-//W3C//DTD SVG 1.1//EN" "http://www.w3.org/Graphics/SVG/1.1/DTD/svg11.dtd"><svg t="1542700697957" class="icon" style="" viewBox="0 0 1024 1024" version="1.1" xmlns="http://www.w3.org/2000/svg" p-id="3201" xmlns:xlink="http://www.w3.org/1999/xlink" width="54" height="54"><defs><style type="text/css"></style></defs><path d="M38.16448 558.0288v419.90144c0 33.01376 51.2 33.01376 51.2 0V558.0288c0-33.01376-51.2-33.01376-51.2 0z" p-id="3202"></path><path d="M327.39328 420.70016v557.23008c0 33.01376 51.2 33.01376 51.2 0V420.70016c0-33.01888-51.2-33.01888-51.2 0z" p-id="3203"></path><path d="M629.21216 558.0288v419.90144c0 33.01376 51.2 33.01376 51.2 0V558.0288c0-33.01376-51.2-33.01376-51.2 0z" p-id="3204"></path><path d="M936.92928 420.70016v557.23008c0 33.01376 51.2 33.01376 51.2 0V420.70016c0-33.01888-51.2-33.01888-51.2 0zM81.86368 414.58176l277.27872-277.27872h-36.20352c95.55968 95.5648 191.11424 191.1296 286.65856 286.69952 9.86112 9.86112 26.3424 9.86112 36.19328 0 99.6864-99.67616 199.35744-199.35232 299.02848-299.02848 23.36256-23.36768-12.83584-59.5712-36.1984-36.20352-99.68128 99.67616-199.35744 199.35232-299.02336 299.02848h36.19328L359.13728 101.09952c-9.86112-9.86112-26.3424-9.86112-36.20352 0L45.65504 378.37824c-23.36256 23.36768 12.84096 59.5712 36.20864 36.20352z" p-id="3205"></path><path d="M779.06944 87.3728h190.208l-25.6-25.6v178.70336c0 33.01888 51.2 33.01888 51.2 0V61.7728c0-13.95712-11.63776-25.6-25.6-25.6h-190.208c-33.01376 0-33.01376 51.2 0 51.2z" p-id="3206"></path></svg>