<?xml version="1.0" standalone="no"?><!DOCTYPE svg PUBLIC "-//W3C//DTD SVG 1.1//EN" "http://www.w3.org/Graphics/SVG/1.1/DTD/svg11.dtd"><svg t="1580711460345" class="icon" viewBox="0 0 1024 1024" version="1.1" xmlns="http://www.w3.org/2000/svg" p-id="7290" xmlns:xlink="http://www.w3.org/1999/xlink" width="128" height="128"><defs><style type="text/css"></style></defs><path d="M374.272 440.832H127.488c-33.792 0-61.44-27.648-61.44-61.44V132.608c0-33.792 27.648-61.44 61.44-61.44h247.296c33.792 0 61.44 27.648 61.44 61.44v247.296c-0.512 33.792-27.648 60.928-61.952 60.928zM127.488 132.608v247.296h247.296V132.608H127.488zM762.88 492.032c-16.384 0-31.744-6.144-43.52-17.92l-174.592-174.592c-11.776-11.776-17.92-27.136-17.92-43.52s6.144-31.744 17.92-43.52l174.592-174.592c11.776-11.776 27.136-17.92 43.52-17.92s31.744 6.144 43.52 17.92l174.592 174.592c11.776 11.776 17.92 27.136 17.92 43.52s-6.144 31.744-17.92 43.52l-174.592 174.592c-11.776 11.776-27.136 17.92-43.52 17.92z m0-410.624L588.288 256 762.88 430.592 937.472 256 762.88 81.408zM374.272 952.832H127.488c-33.792 0-61.44-27.648-61.44-61.44v-247.296c0-33.792 27.648-61.44 61.44-61.44h247.296c33.792 0 61.44 27.648 61.44 61.44v247.296c-0.512 34.304-27.648 61.44-61.952 61.44z m-246.784-308.224v247.296h247.296v-247.296H127.488zM886.272 952.832h-247.296c-33.792 0-61.44-27.648-61.44-61.44v-247.296c0-33.792 27.648-61.44 61.44-61.44h247.296c33.792 0 61.44 27.648 61.44 61.44v247.296c0 34.304-27.136 61.44-61.44 61.44z m-246.784-308.224v247.296h247.296v-247.296h-247.296z" p-id="7291"></path></svg>