<?xml version="1.0" standalone="no"?><!DOCTYPE svg PUBLIC "-//W3C//DTD SVG 1.1//EN" "http://www.w3.org/Graphics/SVG/1.1/DTD/svg11.dtd"><svg t="1580711541501" class="icon" viewBox="0 0 1024 1024" version="1.1" xmlns="http://www.w3.org/2000/svg" p-id="10218" xmlns:xlink="http://www.w3.org/1999/xlink" width="128" height="128"><defs><style type="text/css"></style></defs><path d="M955.092096 763.262604l0-102.226243-69.523423-11.606339c-0.642636-1.61887-1.313925-3.234671-2.01182-4.845355l40.981367-57.363476-72.29249-72.29556-57.378825 40.951691c-1.604544-0.693802-3.218298-1.360997-4.835122-2.001587l-11.605316-69.505004-102.224196 0-11.606339 69.51933c-1.626034 0.644683-3.248997 1.316995-4.864798 2.016937l-57.343009-40.986483-15.316847 15.31787c-8.084119-3.351328-16.255219-6.407943-24.503067-9.169847 17.087167-10.036587 33.016974-22.307052 47.39852-36.68962 44.329625-44.329625 68.743664-103.270015 68.743664-165.964916 0-62.694901-24.413016-121.636315-68.743664-165.965939-44.328601-44.329625-103.270015-68.743664-165.964916-68.743664-62.694901 0-121.636315 24.413016-165.965939 68.743664-44.330648 44.329625-68.743664 103.271038-68.743664 165.965939 0 62.694901 24.413016 121.635291 68.743664 165.964916 14.387685 14.387685 30.321586 26.662243 47.415916 36.699853-9.124821 3.051499-18.155499 6.456039-27.076682 10.229992-44.551682 18.844184-84.556814 45.815465-118.907157 80.165808-34.349319 34.348296-61.320601 74.355475-80.163761 118.906134-19.515473 46.13883-29.40982 95.134731-29.40982 145.627728l51.223638 0c0-0.243547 0.008186-0.48607 0.00921-0.729617L568.286446 875.278817l34.093493 34.094516 57.376779-40.945551c1.613754 0.698918 3.227508 1.36816 4.838192 2.006703l11.607362 69.494771 102.224196 0 11.604292-69.518307c1.627057-0.645706 3.252067-1.319042 4.869914-2.02103l57.340963 40.961924 72.299653-72.29863-41.001833-57.354266c0.700965-1.613754 1.373277-3.230578 2.015913-4.850471L955.092096 763.262604zM260.51585 318.411957c0-101.174284 82.311681-183.485965 183.485965-183.485965 101.173261 0 183.484941 82.311681 183.484941 183.485965 0 101.173261-82.311681 183.483918-183.484941 183.483918C342.826508 501.895875 260.51585 419.585217 260.51585 318.411957zM539.391349 824.052109 125.316635 824.052109c24.923646-153.425322 158.330028-270.933619 318.685179-270.933619 35.588543 0 70.209038 5.66093 103.32425 16.864086l-17.237593 17.238616 40.98853 57.369615c-0.696872 1.611707-1.36509 3.224438-2.004657 4.839215l-69.537749 11.605316 0 102.224196 69.530586 11.610432c0.645706 1.629103 1.314948 3.243881 2.00568 4.842285L539.391349 824.052109zM855.620593 831.341119l-9.087982 9.081843-47.445592-33.836643-14.563694 8.170077c-7.928576 4.419659-16.367783 7.907087-25.115004 10.370185l-16.07614 4.564969-9.592472 57.466829-12.849656 0-9.575076-57.482179-16.138562-4.51585c-8.56098-2.400676-17.007349-5.90243-25.092491-10.402931l-14.59337-8.140401-47.397496 33.841759-9.086959-9.085936 33.890878-47.432289-8.192589-14.647605c-4.408403-7.848759-7.894807-16.273638-10.370185-25.073048l-4.562922-16.078187-57.467853-9.572006 0-12.849656 57.415664-9.586332 4.626367-16.118096c2.429329-8.650007 5.92085-17.084097 10.389628-25.091468l8.124028-14.612813-33.855062-47.38624 9.087982-9.087982 47.418986 33.863249 14.628162-8.157797c7.888667-4.426823 16.325827-7.92346 25.062815-10.387581l16.114003-4.524037 9.573029-57.493435 12.850679 0 9.596566 57.466829 16.095583 4.524037c8.613168 2.430352 17.060561 5.940292 25.146727 10.453073l14.57802 8.077979 47.376007-33.82334 9.087982 9.089006-33.898041 47.439452 8.190543 14.598486c4.41352 7.880481 7.91118 16.327874 10.404977 25.12626l4.569062 16.041348 57.434084 9.589402 0 12.844539-57.470923 9.549493-4.572132 16.159028c-2.397606 8.570189-5.889127 17.002232-10.379395 25.059745l-8.136308 14.595416L855.620593 831.341119zM727.311299 627.965152c-46.417169 0-84.181261 37.764092-84.181261 84.183308 0 46.420239 37.763069 84.186378 84.181261 84.186378 46.419216 0 84.184331-37.765115 84.184331-84.186378C811.49563 665.730267 773.730515 627.965152 727.311299 627.965152zM727.311299 743.063563c-17.045211 0-30.913057-13.868869-30.913057-30.915104s13.867846-30.915104 30.913057-30.915104c17.047258 0 30.916127 13.868869 30.916127 30.915104S744.358557 743.063563 727.311299 743.063563z" p-id="10219"></path></svg>