<?xml version="1.0" standalone="no"?><!DOCTYPE svg PUBLIC "-//W3C//DTD SVG 1.1//EN" "http://www.w3.org/Graphics/SVG/1.1/DTD/svg11.dtd"><svg t="1580698548494" class="icon" viewBox="0 0 1024 1024" version="1.1" xmlns="http://www.w3.org/2000/svg" p-id="2117" xmlns:xlink="http://www.w3.org/1999/xlink" width="128" height="128"><defs><style type="text/css"></style></defs><path d="M512 38.4L85.344 183.456V550.4c0 149.344 85.344 281.6 226.144 345.6l192 89.6 204.8-93.856c140.8-59.744 230.4-196.256 230.4-349.856v-358.4L512.032 38.432z m341.344 503.456c0 119.456-68.256 226.144-179.2 273.056l-170.656 76.8-157.856-72.544c-106.656-46.944-174.944-153.6-174.944-268.8v-307.2l341.344-115.2 341.344 115.2v298.656z" p-id="2118"></path><path d="M341.344 384c0 81.056 55.456 145.056 128 166.4V768h85.344v-42.656h42.656V640h-42.656v-89.6c72.544-17.056 128-85.344 128-166.4 0-93.856-76.8-170.656-170.656-170.656s-170.656 76.8-170.656 170.656z m256 0c0 46.944-38.4 85.344-85.344 85.344s-85.344-38.4-85.344-85.344 38.4-85.344 85.344-85.344c46.944 0 85.344 38.4 85.344 85.344z" p-id="2119"></path></svg>