<?xml version="1.0" standalone="no"?><!DOCTYPE svg PUBLIC "-//W3C//DTD SVG 1.1//EN" "http://www.w3.org/Graphics/SVG/1.1/DTD/svg11.dtd"><svg t="1686299438645" class="icon" viewBox="0 0 1024 1024" version="1.1" xmlns="http://www.w3.org/2000/svg" p-id="19366" xmlns:xlink="http://www.w3.org/1999/xlink" width="128" height="128"><path d="M814.545455 186.181818h-230.4l121.018181-86.109091c11.636364-6.981818 13.963636-20.945455 4.654546-32.581818-6.981818-11.636364-20.945455-13.963636-32.581818-4.654545l-165.236364 116.363636-165.236364-116.363636c-11.636364-6.981818-25.6-4.654545-32.581818 4.654545-6.981818 11.636364-4.654545 25.6 4.654546 32.581818L439.854545 186.181818H209.454545c-76.8 0-139.636364 62.836364-139.636363 139.636364v477.090909c0 76.8 62.836364 139.636364 139.636363 139.636364h605.09091c76.8 0 139.636364-62.836364 139.636363-139.636364V325.818182c0-76.8-62.836364-139.636364-139.636363-139.636364z m93.090909 616.727273c0 51.2-41.890909 93.090909-93.090909 93.090909H209.454545c-51.2 0-93.090909-41.890909-93.090909-93.090909V325.818182c0-51.2 41.890909-93.090909 93.090909-93.090909h605.09091c51.2 0 93.090909 41.890909 93.090909 93.090909v477.090909z" fill="" p-id="19367"></path><path d="M686.545455 523.636364l-251.345455-144.290909c-6.981818-4.654545-16.290909-6.981818-23.272727-6.981819-23.272727 0-46.545455 18.618182-46.545455 46.545455v290.909091c0 27.927273 23.272727 46.545455 46.545455 46.545454 6.981818 0 16.290909-2.327273 23.272727-6.981818L686.545455 605.090909c30.254545-18.618182 30.254545-62.836364 0-81.454545z m-274.618182 186.181818V418.909091l251.345454 144.290909-251.345454 146.618182z" fill="" p-id="19368"></path></svg>