<svg t="1725716702495" class="icon" viewBox="0 0 1024 1024" version="1.1" xmlns="http://www.w3.org/2000/svg" p-id="1169" width="200" height="200"><path d="M384 128c98.346667 0 188.032 36.949333 256 97.749333a298.666667 298.666667 0 1 1 0 572.501334 382.634667 382.634667 0 0 1-256 97.749333A384 384 0 0 1 384 128z m0 85.333333a298.666667 298.666667 0 1 0 170.709333 543.744A298.112 298.112 0 0 1 426.666667 512a298.325333 298.325333 0 0 1 128-245.12A297.088 297.088 0 0 0 384 213.333333z m341.333333 85.333334a215.893333 215.893333 0 0 0-21.333333 1.066666A382.037333 382.037333 0 0 1 768 512c0 78.506667-23.552 151.466667-64 212.266667A213.333333 213.333333 0 1 0 725.333333 298.666667z m-106.666666 28.586666l-3.498667 2.005334A213.205333 213.205333 0 0 0 512 512a213.248 213.248 0 0 0 106.624 184.746667A297.088 297.088 0 0 0 682.666667 512a297.386667 297.386667 0 0 0-64-184.746667z" p-id="1170" fill="#d4237a"></path></svg>